<svg width="137" height="140" viewBox="0 0 137 140" fill="none" xmlns="http://www.w3.org/2000/svg">
<path d="M62.4449 26.6188C70.7749 21.8094 81.0379 21.8094 89.3679 26.6188L114.906 41.3632C123.236 46.1726 128.367 55.0606 128.367 64.6793V94.1681C128.367 103.787 123.236 112.675 114.906 117.484L89.3679 132.229C81.0379 137.038 70.7749 137.038 62.4449 132.229L36.9068 117.484C28.5767 112.675 23.4453 103.787 23.4453 94.1681V64.6793C23.4453 55.0606 28.5767 46.1726 36.9068 41.3632L62.4449 26.6188Z" fill="#68A0E9"/>
<path d="M75.8443 40.4142C75.7719 39.592 75.0526 38.9822 74.2312 39.0433C73.404 39.0965 72.7741 39.8078 72.823 40.6361C72.87 41.4371 73.5343 42.0552 74.3262 42.0552C74.3561 42.0552 74.386 42.0542 74.4163 42.0525C74.4308 42.0515 74.4606 42.0494 74.4751 42.0482C75.3043 41.9751 75.9175 41.2434 75.8443 40.4142Z" fill="white"/>
<path d="M96.2484 46.5476C95.6303 45.9928 94.6792 46.0425 94.1223 46.66C93.5648 47.2783 93.6141 48.2314 94.2322 48.7889C94.2404 48.7963 94.2601 48.8137 94.2683 48.8208C94.5532 49.0668 94.9036 49.187 95.2523 49.187C95.6756 49.187 96.0964 49.0098 96.3944 48.6643C96.9352 48.0375 96.8688 47.0928 96.2484 46.5476Z" fill="white"/>
<path d="M88.2231 41.4439C87.4638 41.1106 86.5769 41.4532 86.2396 42.2119C85.9016 42.9727 86.2441 43.8636 87.0048 44.2015L87.056 44.2236C87.244 44.3011 87.4388 44.3378 87.6304 44.3378C88.2227 44.3378 88.7845 43.9865 89.0244 43.4051C89.3397 42.6413 88.9811 41.7674 88.2231 41.4439Z" fill="white"/>
<path d="M99.5686 49.9874C99.5664 49.9843 99.5544 49.97 99.5521 49.9672C99.0231 49.3274 98.0807 49.2415 97.4388 49.7687C96.797 50.2954 96.7069 51.2478 97.2314 51.8917C97.5294 52.2572 97.9633 52.4468 98.4008 52.4468C98.7356 52.4468 99.0724 52.336 99.3521 52.108C99.9974 51.5822 100.094 50.6326 99.5686 49.9874Z" fill="white"/>
<path d="M79.0031 39.1009L78.988 39.0995C78.1589 39.0274 77.4347 39.64 77.3613 40.4692C77.2883 41.2986 77.9089 42.0306 78.7381 42.104C78.7832 42.1079 78.8281 42.1099 78.8724 42.1099C79.6449 42.1099 80.3031 41.5191 80.3722 40.735C80.4453 39.9057 79.8324 39.1742 79.0031 39.1009Z" fill="white"/>
<path d="M83.7341 39.9127C83.7204 39.9089 83.6919 39.9016 83.678 39.8981C82.8695 39.7024 82.0558 40.1989 81.8593 41.0076C81.6635 41.8132 82.1562 42.6253 82.9593 42.8261C83.086 42.859 83.213 42.8747 83.3382 42.8747C84.0012 42.8746 84.6089 42.4337 84.7917 41.7635C85.0107 40.9602 84.5373 40.1317 83.7341 39.9127Z" fill="white"/>
<path d="M92.4724 43.6988C92.4547 43.6869 92.4366 43.6755 92.4185 43.6643C91.7113 43.2252 90.7833 43.4431 90.3442 44.1503C89.9068 44.8538 90.1208 45.7784 90.8199 46.2202C91.0719 46.3826 91.3549 46.4605 91.6347 46.4605C92.1218 46.4605 92.5999 46.225 92.8904 45.7891C93.3522 45.0965 93.165 44.1605 92.4724 43.6988Z" fill="white"/>
<path d="M104.956 70.5684C104.13 70.484 103.388 71.0854 103.303 71.9135L103.299 71.9504C103.226 72.7796 103.838 73.516 104.668 73.5891C104.713 73.5931 104.758 73.5951 104.803 73.5951C105.575 73.5951 106.232 73.0086 106.301 72.2248L104.802 72.0678L106.301 72.2222C106.387 71.394 105.784 70.6537 104.956 70.5684Z" fill="white"/>
<path d="M103.115 79.4309C102.356 79.0882 101.463 79.4254 101.12 80.1841L101.099 80.2325C100.776 80.9994 101.135 81.8837 101.902 82.2074C102.094 82.288 102.292 82.3262 102.488 82.3262C103.07 82.3261 103.624 81.9863 103.871 81.42C104.209 80.6624 103.872 79.7726 103.115 79.4309Z" fill="white"/>
<path d="M102.31 53.9074C102.303 53.8953 102.288 53.8705 102.281 53.8587C101.851 53.1462 100.926 52.9183 100.213 53.3477C99.5031 53.7758 99.2732 54.6979 99.6962 55.4097C99.9756 55.8894 100.48 56.1583 101 56.1583C101.252 56.1583 101.507 56.0949 101.742 55.9621C102.466 55.5515 102.72 54.6317 102.31 53.9074Z" fill="white"/>
<path d="M106.403 67.4616L106.402 67.4465C106.353 66.6155 105.641 65.9884 104.809 66.0379C103.978 66.0868 103.344 66.8076 103.393 67.6386C103.44 68.4397 104.105 69.0575 104.897 69.0575C104.926 69.0575 104.957 69.0567 104.987 69.0548C105.818 69.006 106.452 68.2926 106.403 67.4616Z" fill="white"/>
<path d="M104.382 58.1641L102.977 58.7091L104.381 58.1606C104.078 57.385 103.204 57.0019 102.428 57.3049C101.653 57.6081 101.269 58.4823 101.573 59.2578C101.575 59.2628 101.582 59.2819 101.584 59.2869C101.82 59.8734 102.383 60.2279 102.979 60.2279C103.165 60.2279 103.355 60.1931 103.538 60.1199C104.31 59.8128 104.686 58.9364 104.382 58.1641Z" fill="white"/>
<path d="M105.768 62.7578C105.766 62.7478 105.761 62.7231 105.758 62.713C105.574 61.9016 104.767 61.3948 103.955 61.5787C103.146 61.7623 102.638 62.5673 102.817 63.3772C102.968 64.0838 103.593 64.5695 104.29 64.5695C104.391 64.5695 104.493 64.5594 104.596 64.5384C105.411 64.3704 105.936 63.5733 105.768 62.7578Z" fill="white"/>
<path d="M104.373 75.064C103.567 74.856 102.746 75.3383 102.538 76.1448C102.319 76.9479 102.792 77.7766 103.596 77.9956C103.728 78.0317 103.862 78.049 103.993 78.049C104.656 78.0492 105.264 77.6083 105.446 76.9378C105.448 76.9311 105.454 76.9095 105.456 76.9027C105.663 76.0966 105.179 75.2717 104.373 75.064Z" fill="white"/>
<path d="M48.7179 60.8962C47.9083 60.7004 47.0939 61.197 46.8976 62.0059L46.8942 62.0205C46.6981 62.8296 47.1967 63.6372 48.0058 63.8333C48.124 63.862 48.2423 63.8757 48.3587 63.8757C49.0401 63.8757 49.6602 63.4071 49.8276 62.7163C50.0236 61.9071 49.5269 61.0924 48.7179 60.8962Z" fill="white"/>
<path d="M50.3701 56.6646C49.6024 56.3425 48.7191 56.7043 48.3971 57.4716L48.3924 57.4826C48.0687 58.2497 48.4283 59.1337 49.1952 59.4576C49.3866 59.5382 49.5851 59.5765 49.7805 59.5765C50.3684 59.5765 50.9273 59.2302 51.1702 58.6545L51.1773 58.6376C51.4993 57.8699 51.1378 56.9866 50.3701 56.6646Z" fill="white"/>
<path d="M49.798 75.5078C49.6135 74.696 48.8056 74.187 47.9939 74.3719C47.1822 74.5565 46.6736 75.3642 46.8581 76.1759C46.8598 76.1829 46.8647 76.2046 46.8665 76.2116C47.0338 76.9019 47.652 77.3671 48.3326 77.3671C48.4496 77.3671 48.5687 77.3533 48.6874 77.3247C49.4965 77.1285 49.9941 76.3169 49.798 75.5078Z" fill="white"/>
<path d="M53.0719 83.4125C52.6416 82.6997 51.7152 82.4703 51.0023 82.9007C50.2895 83.3309 50.0604 84.2575 50.4903 84.9703C50.4938 84.9757 50.505 84.994 50.5084 84.9992C50.7942 85.4596 51.2878 85.7131 51.7927 85.7131C52.0638 85.7131 52.3382 85.64 52.5851 85.4867C53.2923 85.0475 53.511 84.1199 53.0719 83.4125Z" fill="white"/>
<path d="M49.136 71.2543C49.0749 70.4239 48.353 69.8007 47.522 69.8615C46.6917 69.9225 46.0681 70.6451 46.1291 71.4754L46.1303 71.4902C46.1888 72.2826 46.8486 72.8799 47.6303 72.8799C47.6679 72.8799 47.7057 72.8783 47.7437 72.8756C48.574 72.8147 49.197 72.0846 49.136 71.2543Z" fill="white"/>
<path d="M47.774 65.3321C46.946 65.259 46.2131 65.8719 46.1399 66.7011C46.1394 66.7085 46.1375 66.7306 46.1369 66.738C46.0758 67.5683 46.6992 68.2944 47.5294 68.3555C47.5672 68.3584 47.6048 68.3596 47.6422 68.3596C48.4242 68.3596 49.0848 67.7585 49.1432 66.9662C49.2163 66.1369 48.6034 65.4053 47.774 65.3321Z" fill="white"/>
<path d="M71.3315 40.8844C71.1589 40.0703 70.3595 39.5498 69.5442 39.7225L69.4921 39.7344C68.6826 39.9276 68.1844 40.7401 68.3775 41.5495C68.5424 42.2421 69.1615 42.7078 69.8437 42.7078C69.9564 42.7078 70.0708 42.6949 70.1852 42.6683C70.9908 42.4889 71.5031 41.6936 71.3315 40.8844Z" fill="white"/>
<path d="M62.7867 43.8176C62.3712 43.0963 61.4493 42.8483 60.728 43.2642C60.7139 43.2725 60.6868 43.2887 60.6728 43.2973C59.9657 43.7361 59.7491 44.6646 60.1878 45.372C60.4728 45.8317 60.9658 46.0845 61.4703 46.0845C61.7381 46.0845 62.009 46.0134 62.2538 45.8641C62.9593 45.443 63.1984 44.532 62.7867 43.8176Z" fill="white"/>
<path d="M66.944 42.0214C66.6518 41.2418 65.7827 40.8472 65.0033 41.1392C64.9879 41.1449 64.9587 41.1565 64.9436 41.1626C64.1742 41.4802 63.8088 42.3607 64.1261 43.1303C64.3658 43.712 64.9283 44.0632 65.521 44.0632C65.7089 44.0632 65.8999 44.0279 66.0845 43.9534C66.8491 43.6529 67.2337 42.7932 66.944 42.0214Z" fill="white"/>
<path d="M58.952 46.2418C58.4201 45.6013 57.4697 45.5132 56.8292 46.0447L56.8069 46.0635C56.1714 46.6012 56.0926 47.5521 56.6303 48.1876C56.9284 48.5399 57.3536 48.7213 57.7816 48.7213C58.1257 48.7213 58.4719 48.6041 58.7552 48.3644C59.3957 47.8327 59.4838 46.8823 58.952 46.2418Z" fill="white"/>
<path d="M55.5579 49.2508C54.9329 48.7009 53.9803 48.7616 53.4303 49.3865C53.4276 49.3896 53.4149 49.4041 53.4122 49.4072C52.8692 50.0349 52.9405 50.978 53.566 51.5238C53.8501 51.772 54.202 51.893 54.5531 51.893C54.9745 51.893 55.3946 51.7181 55.6937 51.3782C56.2436 50.7532 56.1828 49.8007 55.5579 49.2508Z" fill="white"/>
<path d="M51.1191 79.587C50.8057 78.8158 49.9266 78.4443 49.1553 78.7577C48.384 79.0711 48.0127 79.9504 48.3261 80.7216C48.3283 80.7268 48.3361 80.7457 48.3384 80.751C48.5804 81.3285 49.1404 81.6767 49.7299 81.6767C49.9241 81.6767 50.1216 81.6388 50.3117 81.5591C51.0794 81.2371 51.4411 80.3547 51.1191 79.587Z" fill="white"/>
<path d="M52.6689 52.7485C51.9616 52.3092 51.0324 52.5268 50.5933 53.2343L50.5852 53.2472C50.1461 53.9546 50.3675 54.8774 51.0749 55.3165C51.3207 55.4691 51.5939 55.5416 51.8639 55.5416C52.3711 55.5416 52.8681 55.286 53.1547 54.8242C53.5938 54.117 53.3762 53.1876 52.6689 52.7485Z" fill="white"/>
<path d="M113.883 106.662H111.492C111.485 106.651 111.479 106.64 111.472 106.629L86.5178 69.6032C85.9952 68.8278 85.2491 68.2543 84.3969 67.9419V63.7403L91.9283 59.0108C92.4002 58.7144 92.6703 58.1819 92.6301 57.6259C92.59 57.0701 92.2466 56.5817 91.7371 56.3558L83.4999 52.7072C83.0337 52.5008 82.4947 52.5439 82.0672 52.822C81.6399 53.1003 81.3821 53.5756 81.3821 54.0855V62.8841C81.3818 62.9003 81.3818 62.9166 81.3821 62.9326V67.9418C80.53 68.2542 79.7838 68.8277 79.2611 69.6031L69.0397 84.7691L66.6093 81.1629C65.7947 79.9543 64.4385 79.2328 62.9808 79.2328C61.5234 79.2328 60.167 79.9543 59.3526 81.1629L42.1673 106.662H39.7184C38.8858 106.662 38.2109 107.337 38.2109 108.169C38.2109 109.002 38.8858 109.677 39.7184 109.677H42.9657L42.9677 109.677L42.9701 109.677H113.883C114.715 109.677 115.39 109.002 115.39 108.169C115.39 107.337 114.715 106.662 113.883 106.662ZM84.3969 56.402L87.9251 57.9649L84.3969 60.1804V56.402ZM45.8028 106.662L61.8528 82.848C62.1099 82.4666 62.5211 82.2479 62.981 82.2479C63.441 82.2479 63.8522 82.4666 64.1093 82.848L67.2222 87.4664L61.8781 95.3956C61.4128 96.0861 61.5952 97.0229 62.2857 97.4881C62.9764 97.9539 63.9131 97.7708 64.3781 97.0806L81.7612 71.2882C82.0183 70.9068 82.4295 70.6881 82.8895 70.6881C83.3494 70.6881 83.7607 70.9068 84.0177 71.2882L107.858 106.662H45.8028Z" fill="white"/>
<path d="M59.316 103.333C60.1485 103.333 60.8234 102.658 60.8234 101.826C60.8234 100.993 60.1485 100.318 59.316 100.318C58.4834 100.318 57.8086 100.993 57.8086 101.826C57.8086 102.658 58.4834 103.333 59.316 103.333Z" fill="white"/>
<path d="M51.3621 79.4233H4.61471V69.3009L26.1479 46.6634C31.4545 40.6205 34.1079 35.82 34.1079 32.2618C34.1079 29.3785 33.479 27.1854 32.2214 25.6822C30.9638 24.1793 29.1387 23.4277 26.746 23.4277C24.3842 23.4277 22.467 24.44 20.9947 26.4645C19.5223 28.4583 18.7861 30.9582 18.7861 33.9643H3.23438C3.23438 29.854 4.26196 26.0658 6.31712 22.5996C8.37228 19.1027 11.225 16.3727 14.8752 14.4096C18.5255 12.4464 22.605 11.4648 27.1142 11.4648C34.3533 11.4648 39.9206 13.1366 43.8162 16.4801C47.7425 19.8235 49.7056 24.624 49.7056 30.8815C49.7056 33.5196 49.2148 36.0961 48.2332 38.6114C47.2517 41.096 45.7179 43.7187 43.6322 46.4793C41.577 49.2093 38.2488 52.8748 33.6478 57.476L24.9976 67.4604H51.3621V79.4233Z" fill="#666666"/>
</svg>
