<svg width="127" height="140" viewBox="0 0 127 140" fill="none" xmlns="http://www.w3.org/2000/svg">
<path d="M52.0543 26.6188C60.3843 21.8094 70.6474 21.8094 78.9774 26.6188L104.515 41.3632C112.846 46.1726 117.977 55.0606 117.977 64.6793V94.1681C117.977 103.787 112.846 112.675 104.515 117.484L78.9774 132.229C70.6474 137.038 60.3843 137.038 52.0543 132.229L26.5163 117.484C18.1861 112.675 13.0547 103.787 13.0547 94.1681V64.6793C13.0547 55.0606 18.1861 46.1726 26.5163 41.3632L52.0543 26.6188Z" fill="#76609E"/>
<path d="M61.7796 74.6304C56.0401 76.3146 52.0943 81.5761 52.0859 87.5577V99.6863C52.0859 100.431 52.689 101.034 53.4332 101.034H77.6919C78.4364 101.034 79.0394 100.431 79.0394 99.6863V87.5577C79.0306 81.5761 75.0847 76.3146 69.3461 74.6304C73.4363 72.8398 75.7109 68.4267 74.7966 64.0561C73.8819 59.6848 70.028 56.5547 65.5626 56.5547C61.0971 56.5547 57.2437 59.6848 56.3287 64.0561C55.4142 68.4267 57.689 72.8398 61.7796 74.6304ZM76.3443 87.5577V98.3384H54.7813V87.5577C54.7813 81.6026 59.608 76.7755 65.5626 76.7755C71.5163 76.7755 76.3443 81.6026 76.3443 87.5577ZM65.5626 59.2559C69.2839 59.2559 72.301 62.2727 72.301 65.9943C72.301 69.7159 69.2839 72.7325 65.5626 72.7325C61.8407 72.7325 58.8241 69.7159 58.8241 65.9943C58.8292 62.2744 61.8431 59.2605 65.5626 59.2559Z" fill="white"/>
<path d="M94.4222 100.813L94.4726 100.694L93.7191 100.376C93.4543 100.236 93.1772 100.119 92.8923 100.026L91.9897 99.6467L91.9222 99.8066C90.7271 99.6441 89.5122 99.8728 88.4582 100.459L83.6716 95.6719L81.7656 97.5776L86.542 102.354C86.0479 103.177 85.785 104.118 85.7804 105.077C85.7879 105.336 85.8123 105.593 85.8563 105.847L85.7399 105.896L85.9911 106.489C86.116 106.957 86.3035 107.403 86.5499 107.818L86.7875 108.379L86.9009 108.331C87.0417 108.527 87.1947 108.713 87.3605 108.889C88.7141 110.29 90.7181 110.852 92.6028 110.359C94.4876 109.865 95.9601 108.393 96.4522 106.509C96.9462 104.624 96.3838 102.62 94.9831 101.266C94.8074 101.102 94.6202 100.95 94.4222 100.813ZM93.0744 106.984C92.0084 108.002 90.3293 108.002 89.263 106.984C88.2101 105.931 88.2101 104.224 89.2625 103.171C90.3159 102.118 92.0221 102.118 93.0744 103.171C94.1279 104.224 94.1279 105.931 93.0744 106.984Z" fill="white"/>
<path d="M101.949 74.0807C101.69 74.0872 101.432 74.1139 101.177 74.1585L101.104 73.9863L99.9275 74.4849C99.8764 74.5062 99.8248 74.5263 99.7749 74.5497L98.6145 75.0388L98.6874 75.2098C97.735 75.937 97.0529 76.9629 96.7498 78.1235H89.8203V80.8191H96.7498C97.0529 81.9818 97.7366 83.0093 98.6931 83.7381L98.6197 83.9095L99.7811 84.3983C99.8299 84.4212 99.8815 84.4415 99.9329 84.4633L101.104 84.9565L101.177 84.7836C103.172 85.0754 105.162 84.2275 106.334 82.5865C107.505 80.945 107.661 78.7874 106.737 76.9951C105.813 75.2028 103.966 74.0785 101.949 74.0807ZM101.949 82.1664C100.461 82.1664 99.2539 80.9598 99.2539 79.4712C99.2539 77.9829 100.461 76.7757 101.949 76.7757C103.438 76.7757 104.644 77.9829 104.644 79.4712C104.644 80.9598 103.438 82.1664 101.949 82.1664Z" fill="white"/>
<path d="M85.7399 53.0471L85.8563 53.0965C85.8123 53.3502 85.7879 53.6075 85.7804 53.8656C85.785 54.8259 86.0479 55.7662 86.542 56.5892L81.7656 61.3651L83.6716 63.271L88.4475 58.4947C89.27 58.9893 90.2115 59.2514 91.1713 59.2562C91.4295 59.2495 91.6865 59.224 91.9408 59.1803L91.9897 59.2962L92.5841 59.0462C93.0498 58.9214 93.4967 58.7331 93.9114 58.4866L94.4726 58.2492L94.4249 58.136C94.6205 57.9951 94.8074 57.842 94.9831 57.6765C97.0871 55.5717 97.0871 52.1589 94.9831 50.054C92.8501 48.0158 89.4921 48.0158 87.3605 50.054C87.1947 50.2293 87.0417 50.4158 86.9009 50.6123L86.7875 50.5636L86.5499 51.1251C86.3035 51.5402 86.116 51.9866 85.9911 52.4532L85.7399 53.0471ZM89.2657 51.9598C89.9419 51.2591 90.944 50.9775 91.8868 51.2248C92.8287 51.4716 93.5656 52.2067 93.8122 53.1495C94.0592 54.0925 93.7771 55.0934 93.0771 55.771C92.0105 56.7901 90.3323 56.7901 89.2657 55.771C88.2136 54.7181 88.2136 53.0125 89.2657 51.9598Z" fill="white"/>
<path d="M76.7188 49.2774L77.7644 46.7949L80.0114 47.7418L78.9652 50.2244L76.7188 49.2774Z" fill="white"/>
<path d="M72.25 47.3585L73.298 44.875L75.5466 45.8235L74.499 48.3063L72.25 47.3585Z" fill="white"/>
<path d="M81.2109 51.1733L82.2566 48.6914L84.5028 49.6378L83.4574 52.119L81.2109 51.1733Z" fill="white"/>
<path d="M96.7266 88.4041L97.6749 86.1562L100.158 87.2046L99.2102 89.4518L96.7266 88.4041Z" fill="white"/>
<path d="M92.9375 97.3977L93.8856 95.1484L96.3691 96.1963L95.4203 98.4445L92.9375 97.3977Z" fill="white"/>
<path d="M94.8281 92.901L95.7765 90.6543L98.2597 91.7016L97.3118 93.9491L94.8281 92.901Z" fill="white"/>
<path d="M51.0391 111.203L52.0842 108.721L54.3309 109.667L53.2855 112.149L51.0391 111.203Z" fill="white"/>
<path d="M55.5312 113.101L56.5769 110.617L58.8229 111.565L57.778 114.047L55.5312 113.101Z" fill="white"/>
<path d="M46.5859 109.326L47.6339 106.842L49.8831 107.79L48.8355 110.274L46.5859 109.326Z" fill="white"/>
<path d="M45.3882 105.896L45.2723 105.847C45.3161 105.593 45.342 105.336 45.3482 105.077C45.3437 104.118 45.0808 103.177 44.5869 102.354L49.3633 97.5776L47.4573 95.6719L42.6702 100.459C41.6164 99.8728 40.4018 99.6441 39.2067 99.8066L39.1392 99.6467L38.2366 100.028C37.9517 100.119 37.6744 100.236 37.4098 100.376L36.6557 100.694L36.7065 100.813C36.5085 100.95 36.3217 101.102 36.1461 101.266C34.7451 102.62 34.1819 104.624 34.6762 106.509C35.1698 108.393 36.6416 109.865 38.5263 110.359C40.4105 110.852 42.4154 110.29 43.7695 108.889C43.934 108.713 44.0872 108.527 44.2282 108.331L44.3414 108.379L44.5785 107.819C44.8251 107.403 45.0134 106.957 45.1373 106.489L45.3882 105.896ZM41.8632 106.984C40.7964 108.002 39.1176 108.002 38.0521 106.984C36.9991 105.931 36.9991 104.224 38.051 103.171C39.1041 102.118 40.8112 102.118 41.8632 103.171C42.9161 104.224 42.9161 105.931 41.8632 106.984Z" fill="white"/>
<path d="M32.8633 67.2393L33.8114 64.9922L36.2954 66.0403L35.3471 68.2877L32.8633 67.2393Z" fill="white"/>
<path d="M30.9688 71.7366L31.9173 69.4883L34.4012 70.5359L33.4523 72.7845L30.9688 71.7366Z" fill="white"/>
<path d="M34.7578 62.745L35.7054 60.498L38.1894 61.5454L37.2408 63.7926L34.7578 62.745Z" fill="white"/>
<path d="M30.9688 87.2038L33.452 86.1562L34.4012 88.4047L31.9175 89.4526L30.9688 87.2038Z" fill="white"/>
<path d="M34.7578 96.1957L37.2408 95.1484L38.1894 97.3952L35.7054 98.4428L34.7578 96.1957Z" fill="white"/>
<path d="M32.8672 91.6999L35.3502 90.6523L36.298 92.8999L33.8146 93.9475L32.8672 91.6999Z" fill="white"/>
<path d="M81.2422 107.789L83.49 106.842L84.5378 109.325L82.2898 110.273L81.2422 107.789Z" fill="white"/>
<path d="M72.25 111.584L74.4985 110.635L75.5461 113.118L73.2974 114.068L72.25 111.584Z" fill="white"/>
<path d="M76.7422 109.686L78.9897 108.738L80.038 111.222L77.7898 112.17L76.7422 109.686Z" fill="white"/>
<path d="M70.55 113.837C70.5289 113.785 70.5087 113.734 70.4851 113.684L69.9966 112.523L69.8255 112.596C69.0979 111.643 68.0719 110.961 66.9119 110.659V103.729H64.2158V110.659C63.0534 110.962 62.0255 111.646 61.2969 112.602L61.1257 112.529L60.6364 113.69C60.6144 113.739 60.594 113.79 60.5723 113.842L60.0781 115.013L60.2515 115.085C59.8871 117.201 60.8125 119.331 62.6076 120.508C64.4025 121.686 66.7249 121.686 68.5199 120.508C70.3148 119.331 71.2408 117.201 70.8764 115.085L71.0487 115.013L70.55 113.837ZM65.5638 118.553C64.0755 118.553 62.8691 117.347 62.8691 115.858C62.8691 114.369 64.0755 113.163 65.5638 113.163C67.0521 113.163 68.2594 114.369 68.2594 115.858C68.2594 117.347 67.0521 118.553 65.5638 118.553Z" fill="white"/>
<path d="M92.9336 61.5442L95.4166 60.4961L96.3655 62.7457L93.8817 63.793L92.9336 61.5442Z" fill="white"/>
<path d="M96.7266 70.5359L99.2105 69.4883L100.158 71.7355L97.6747 72.7831L96.7266 70.5359Z" fill="white"/>
<path d="M94.8281 66.0395L97.312 64.9922L98.2589 67.2392L95.7757 68.2869L94.8281 66.0395Z" fill="white"/>
<path d="M60.5774 45.1035C60.5991 45.1548 60.6195 45.2064 60.642 45.2553L61.1311 46.4164L61.3027 46.3434C62.03 47.2962 63.0561 47.9782 64.2158 48.2811V55.2111H66.9119V48.2811C68.0745 47.9779 69.1025 47.2946 69.8303 46.338L70.002 46.4113L70.491 45.2499C70.5141 45.2008 70.5337 45.1496 70.5559 45.0983L71.0487 43.9269L70.8764 43.8545C70.9213 43.5993 70.9466 43.3412 70.9545 43.0821C70.9545 40.1049 68.541 37.6914 65.5638 37.6914C62.5872 37.6914 60.1729 40.1049 60.1729 43.0821C60.1807 43.3412 60.2067 43.5993 60.2515 43.8545L60.0781 43.9269L60.5774 45.1035ZM65.5638 40.3869C67.0521 40.3869 68.2594 41.5935 68.2594 43.0821C68.2594 44.5704 67.0521 45.7779 65.5638 45.7779C64.0755 45.7779 62.8691 44.5704 62.8691 43.0821C62.8691 41.5935 64.0755 40.3869 65.5638 40.3869Z" fill="white"/>
<path d="M46.5898 49.6144L48.8371 48.666L49.8844 51.1497L47.6374 52.0974L46.5898 49.6144Z" fill="white"/>
<path d="M55.582 45.8242L57.829 44.877L58.8769 47.3598L56.6293 48.3083L55.582 45.8242Z" fill="white"/>
<path d="M51.0859 47.7188L53.3336 46.7715L54.3812 49.2541L52.1335 50.2026L51.0859 47.7188Z" fill="white"/>
<path d="M39.3665 79.4238H23.8148V29.9159L8.53906 34.379V22.6001L37.9401 12.4316H39.3665V79.4238Z" fill="#AF9EE2"/>
</svg>
