<svg width="131" height="140" viewBox="0 0 131 140" fill="none" xmlns="http://www.w3.org/2000/svg">
<path d="M56.7496 26.6188C65.0796 21.8094 75.3426 21.8094 83.6726 26.6188L109.211 41.3632C117.541 46.1726 122.672 55.0606 122.672 64.6793V94.1681C122.672 103.787 117.541 112.675 109.211 117.484L83.6726 132.229C75.3426 137.038 65.0796 137.038 56.7496 132.229L31.2115 117.484C22.8814 112.675 17.75 103.787 17.75 94.1681V64.6793C17.75 55.0606 22.8814 46.1726 31.2115 41.3632L56.7496 26.6188Z" fill="#76609E"/>
<path d="M98.6846 96.7137C100.643 95.312 101.922 93.0196 101.922 90.433C101.922 86.1761 98.4591 82.7129 94.2021 82.7129C89.9453 82.7129 86.4821 86.1761 86.4821 90.433C86.4821 93.0204 87.7623 95.3134 89.7216 96.7149C85.8797 98.4342 83.1953 102.292 83.1953 106.766C83.1953 107.427 83.7314 107.963 84.3923 107.963C85.0534 107.963 85.5894 107.427 85.5894 106.766C85.5894 102.017 89.453 98.1531 94.2021 98.1531C98.9514 98.1531 102.815 102.017 102.815 106.766C102.815 107.427 103.351 107.963 104.012 107.963C104.673 107.963 105.209 107.427 105.209 106.766C105.209 102.292 102.526 98.4333 98.6846 96.7137ZM94.2021 95.7591C91.2652 95.7591 88.8761 93.3699 88.8761 90.433C88.8761 87.4962 91.2654 85.1069 94.2021 85.1069C97.1392 85.1069 99.5283 87.4962 99.5283 90.433C99.5283 93.3699 97.1392 95.7591 94.2021 95.7591Z" fill="white"/>
<path d="M78.5215 44.7274C76.4324 42.6674 73.662 41.5537 70.7287 41.5969C64.7385 41.681 59.9296 46.6257 60.0088 52.6192C60.0457 55.4044 61.134 58.04 63.0733 60.041C64.3932 61.4029 65.1199 63.1622 65.1199 64.9952V66.3835C65.1199 69.1836 67.3979 71.4616 70.1981 71.4616H71.5714C74.3717 71.4616 76.6497 69.1836 76.6497 66.3835V64.9951C76.6497 63.1595 77.3738 61.4027 78.6887 60.0488C80.6703 58.0081 81.7618 55.3175 81.7618 52.4725C81.7618 49.5384 80.6111 46.788 78.5215 44.7274ZM74.2558 66.3836C74.2558 67.8636 73.0517 69.0677 71.5716 69.0677H70.1982C68.7181 69.0677 67.5141 67.8636 67.5141 66.3836V66.1924H74.2559L74.2558 66.3836ZM76.9714 58.3813C75.5068 59.8895 74.595 61.7799 74.3351 63.7985H72.0818V56.8972L75.6243 53.3546C76.0917 52.8872 76.0917 52.1292 75.6243 51.662C75.1569 51.1945 74.3989 51.1945 73.9315 51.662L70.8848 54.7089L67.8381 51.662C67.3708 51.1945 66.6127 51.1945 66.1453 51.662C65.678 52.1294 65.678 52.8874 66.1453 53.3546L69.6879 56.8972V63.7985H67.4344C67.1737 61.782 66.2599 59.8894 64.7925 58.3751C63.2801 56.8146 62.4316 54.7592 62.4028 52.5877C62.3409 47.9129 66.0911 44.0563 70.7625 43.9906C70.8036 43.9901 70.8445 43.9898 70.8856 43.9898C73.13 43.9898 75.2406 44.8543 76.8408 46.4322C78.4706 48.0391 79.3679 50.1844 79.3679 52.4729C79.3678 54.6914 78.5168 56.7897 76.9714 58.3813Z" fill="white"/>
<path d="M59.506 71.8135C59.0388 71.346 58.2809 71.346 57.8134 71.8135L50.6318 78.995C50.1644 79.4624 50.1644 80.2203 50.6318 80.6878C50.8653 80.9216 51.1719 81.0385 51.4782 81.0385C51.7845 81.0385 52.0909 80.9216 52.3246 80.6878L59.506 73.5062C59.9736 73.0389 59.9736 72.2809 59.506 71.8135Z" fill="white"/>
<path d="M91.1388 78.995L83.9574 71.8135C83.49 71.346 82.7323 71.346 82.2646 71.8135C81.7972 72.2808 81.7972 73.0387 82.2646 73.5062L89.4462 80.6878C89.6798 80.9216 89.9863 81.0385 90.2925 81.0385C90.5988 81.0385 90.9052 80.9216 91.1388 80.6878C91.6064 80.2204 91.6064 79.4625 91.1388 78.995Z" fill="white"/>
<path d="M70.8845 74.3145C70.2235 74.3145 69.6875 74.8504 69.6875 75.5115V80.0804C69.6875 80.7415 70.2235 81.2774 70.8845 81.2774C71.5456 81.2774 72.0815 80.7415 72.0815 80.0804V75.5115C72.0815 74.8504 71.5456 74.3145 70.8845 74.3145Z" fill="white"/>
<path d="M91.4704 88.9467C92.1315 88.9467 92.6674 88.4108 92.6674 87.7497C92.6674 87.0886 92.1315 86.5527 91.4704 86.5527C90.8093 86.5527 90.2734 87.0886 90.2734 87.7497C90.2734 88.4108 90.8093 88.9467 91.4704 88.9467Z" fill="white"/>
<path d="M95.8611 88.9467C96.5222 88.9467 97.0581 88.4108 97.0581 87.7497C97.0581 87.0886 96.5222 86.5527 95.8611 86.5527C95.2 86.5527 94.6641 87.0886 94.6641 87.7497C94.6641 88.4108 95.2 88.9467 95.8611 88.9467Z" fill="white"/>
<path d="M75.3642 96.7137C77.3226 95.312 78.602 93.0196 78.602 90.433C78.602 86.1761 75.1388 82.7129 70.882 82.7129C66.625 82.7129 63.1618 86.1761 63.1618 90.433C63.1618 93.0204 64.442 95.3134 66.4013 96.7149C62.5594 98.4342 59.875 102.292 59.875 106.766C59.875 107.427 60.411 107.963 61.0721 107.963C61.7331 107.963 62.2691 107.427 62.2691 106.766C62.2691 102.017 66.1327 98.1531 70.882 98.1531C75.6311 98.1531 79.4947 102.017 79.4947 106.766C79.4947 107.427 80.0307 107.963 80.6918 107.963C81.3527 107.963 81.8888 107.427 81.8888 106.766C81.8885 102.292 79.2055 98.4333 75.3642 96.7137ZM70.8818 95.7591C67.9448 95.7591 65.5556 93.3699 65.5556 90.433C65.5556 87.4962 67.9451 85.1068 70.8818 85.1068C73.8187 85.1068 76.2079 87.496 76.2079 90.4328C76.2079 93.3699 73.8187 95.7591 70.8818 95.7591Z" fill="white"/>
<path d="M68.6893 88.9467C69.3503 88.9467 69.8863 88.4108 69.8863 87.7497C69.8863 87.0886 69.3503 86.5527 68.6893 86.5527C68.0282 86.5527 67.4922 87.0886 67.4922 87.7497C67.4922 88.4108 68.0282 88.9467 68.6893 88.9467Z" fill="white"/>
<path d="M73.0798 88.9467C73.7409 88.9467 74.2768 88.4108 74.2768 87.7497C74.2768 87.0886 73.7409 86.5527 73.0798 86.5527C72.4187 86.5527 71.8828 87.0886 71.8828 87.7497C71.8828 88.4108 72.4187 88.9467 73.0798 88.9467Z" fill="white"/>
<path d="M52.0419 96.715C54.0012 95.3134 55.2816 93.0205 55.2816 90.4331C55.2816 86.1761 51.8183 82.7129 47.5614 82.7129C43.3044 82.7129 39.8412 86.1761 39.8412 90.4331C39.8412 93.0197 41.1207 95.3124 43.0791 96.7138C39.2377 98.4335 36.5547 102.292 36.5547 106.766C36.5547 107.427 37.0906 107.963 37.7517 107.963C38.4128 107.963 38.9487 107.427 38.9487 106.766C38.9487 102.017 42.8124 98.1533 47.5615 98.1533C52.3107 98.1533 56.1743 102.017 56.1743 106.766C56.1743 107.427 56.7102 107.963 57.3713 107.963C58.0324 107.963 58.5683 107.427 58.5683 106.766C58.5681 102.292 55.8838 98.4345 52.0419 96.715ZM47.5614 95.7594C44.6245 95.7594 42.2352 93.3701 42.2352 90.4332C42.2352 87.4964 44.6246 85.1072 47.5614 85.1072C50.4983 85.1072 52.8876 87.4964 52.8876 90.4332C52.8876 93.3701 50.4983 95.7594 47.5614 95.7594Z" fill="white"/>
<path d="M50.2947 88.9467C50.9558 88.9467 51.4917 88.4108 51.4917 87.7497C51.4917 87.0886 50.9558 86.5527 50.2947 86.5527C49.6336 86.5527 49.0977 87.0886 49.0977 87.7497C49.0977 88.4108 49.6336 88.9467 50.2947 88.9467Z" fill="white"/>
<path d="M45.9079 88.9467C46.569 88.9467 47.1049 88.4108 47.1049 87.7497C47.1049 87.0886 46.569 86.5527 45.9079 86.5527C45.2468 86.5527 44.7109 87.0886 44.7109 87.7497C44.7109 88.4108 45.2468 88.9467 45.9079 88.9467Z" fill="white"/>
<path d="M18.4788 39.4397H25.7946C31.592 39.4397 34.4908 36.6022 34.4908 30.9275C34.4908 28.719 33.8006 26.9246 32.4203 25.5443C31.0399 24.1332 29.0922 23.4277 26.5769 23.4277C24.5217 23.4277 22.7273 24.0259 21.1935 25.2221C19.6905 26.4185 18.939 27.9061 18.939 29.6853H3.43325C3.43325 26.1577 4.41481 23.0136 6.37796 20.2529C8.3411 17.4922 11.0558 15.3451 14.522 13.8115C18.0187 12.247 21.853 11.4648 26.0247 11.4648C33.4785 11.4648 39.3372 13.1673 43.6009 16.572C47.8647 19.9768 49.9965 24.6547 49.9965 30.6055C49.9965 33.4889 49.1069 36.2189 47.3279 38.7954C45.5795 41.3414 43.0181 43.4119 39.644 45.007C43.2022 46.2952 45.9935 48.2585 48.018 50.8964C50.0425 53.5036 51.0548 56.7398 51.0548 60.6047C51.0548 66.5862 48.7542 71.3714 44.1531 74.9602C39.5519 78.5491 33.5092 80.3435 26.0247 80.3435C21.6383 80.3435 17.5586 79.5153 13.7857 77.8589C10.0435 76.1718 7.20616 73.856 5.2737 70.9113C3.34123 67.9359 2.375 64.5617 2.375 60.7887H17.9728C17.9728 62.8439 18.801 64.623 20.4574 66.1261C22.1137 67.6291 24.1535 68.3806 26.5769 68.3806C29.3069 68.3806 31.4847 67.6291 33.1105 66.1261C34.7362 64.5923 35.549 62.6445 35.549 60.2826C35.549 56.9084 34.7055 54.5159 33.0184 53.1049C31.3314 51.6938 29.0001 50.9885 26.0247 50.9885H18.4788V39.4397Z" fill="#AF9EE2"/>
</svg>
