<svg width="127" height="140" viewBox="0 0 127 140" fill="none" xmlns="http://www.w3.org/2000/svg">
<path d="M52.0582 26.6188C60.3882 21.8094 70.6513 21.8094 78.9813 26.6188L104.519 41.3632C112.849 46.1726 117.981 55.0606 117.981 64.6793V94.1681C117.981 103.787 112.849 112.675 104.519 117.484L78.9813 132.229C70.6513 137.038 60.3882 137.038 52.0582 132.229L26.5202 117.484C18.1901 112.675 13.0586 103.787 13.0586 94.1681V64.6793C13.0586 55.0606 18.1901 46.1726 26.5202 41.3632L52.0582 26.6188Z" fill="#FFC90B"/>
<path d="M61.7815 74.6304C56.0421 76.3146 52.0962 81.5761 52.0879 87.5577V99.6863C52.0879 100.431 52.691 101.034 53.4351 101.034H77.6939C78.4383 101.034 79.0414 100.431 79.0414 99.6863V87.5577C79.0325 81.5761 75.0867 76.3146 69.348 74.6304C73.4383 72.8398 75.7129 68.4267 74.7986 64.0561C73.8839 59.6848 70.03 56.5547 65.5645 56.5547C61.099 56.5547 57.2457 59.6848 56.3307 64.0561C55.4161 68.4267 57.691 72.8398 61.7815 74.6304ZM76.3463 87.5577V98.3384H54.7833V87.5577C54.7833 81.6026 59.6099 76.7755 65.5645 76.7755C71.5183 76.7755 76.3463 81.6026 76.3463 87.5577ZM65.5645 59.2559C69.2858 59.2559 72.3029 62.2727 72.3029 65.9943C72.3029 69.7159 69.2858 72.7325 65.5645 72.7325C61.8427 72.7325 58.8261 69.7159 58.8261 65.9943C58.8312 62.2744 61.8451 59.2605 65.5645 59.2559Z" fill="white"/>
<path d="M94.4222 100.813L94.4726 100.694L93.7191 100.376C93.4543 100.236 93.1772 100.119 92.8923 100.026L91.9897 99.6467L91.9222 99.8066C90.7271 99.6441 89.5122 99.8728 88.4582 100.459L83.6716 95.6719L81.7656 97.5776L86.542 102.354C86.0479 103.177 85.785 104.118 85.7804 105.077C85.7879 105.336 85.8123 105.593 85.8563 105.847L85.7399 105.896L85.9911 106.489C86.116 106.957 86.3035 107.403 86.5499 107.818L86.7875 108.379L86.9009 108.331C87.0417 108.527 87.1947 108.713 87.3605 108.889C88.7141 110.29 90.7181 110.852 92.6028 110.359C94.4876 109.865 95.9601 108.393 96.4522 106.509C96.9462 104.624 96.3838 102.62 94.9831 101.266C94.8074 101.102 94.6202 100.95 94.4222 100.813ZM93.0744 106.984C92.0084 108.002 90.3293 108.002 89.263 106.984C88.2101 105.931 88.2101 104.224 89.2625 103.171C90.3159 102.118 92.0221 102.118 93.0744 103.171C94.1279 104.224 94.1279 105.931 93.0744 106.984Z" fill="white"/>
<path d="M101.953 74.0807C101.694 74.0872 101.436 74.1139 101.181 74.1585L101.108 73.9863L99.9314 74.4849C99.8803 74.5062 99.8287 74.5263 99.7788 74.5497L98.6184 75.0388L98.6913 75.2098C97.7389 75.937 97.0568 76.9629 96.7537 78.1235H89.8242V80.8191H96.7537C97.0568 81.9818 97.7405 83.0093 98.697 83.7381L98.6236 83.9095L99.785 84.3983C99.8338 84.4212 99.8854 84.4415 99.9368 84.4633L101.108 84.9565L101.181 84.7836C103.176 85.0754 105.166 84.2275 106.337 82.5865C107.509 80.945 107.665 78.7874 106.741 76.9951C105.817 75.2028 103.97 74.0785 101.953 74.0807ZM101.953 82.1664C100.464 82.1664 99.2578 80.9598 99.2578 79.4712C99.2578 77.9829 100.464 76.7757 101.953 76.7757C103.442 76.7757 104.648 77.9829 104.648 79.4712C104.648 80.9598 103.442 82.1664 101.953 82.1664Z" fill="white"/>
<path d="M85.7399 53.0471L85.8563 53.0965C85.8123 53.3502 85.7879 53.6075 85.7804 53.8656C85.785 54.8259 86.0479 55.7662 86.542 56.5892L81.7656 61.3651L83.6716 63.271L88.4475 58.4947C89.27 58.9893 90.2115 59.2514 91.1713 59.2562C91.4295 59.2495 91.6865 59.224 91.9408 59.1803L91.9897 59.2962L92.5841 59.0462C93.0498 58.9214 93.4967 58.7331 93.9114 58.4866L94.4726 58.2492L94.4249 58.136C94.6205 57.9951 94.8074 57.842 94.9831 57.6765C97.0871 55.5717 97.0871 52.1589 94.9831 50.054C92.8501 48.0158 89.4921 48.0158 87.3605 50.054C87.1947 50.2293 87.0417 50.4158 86.9009 50.6123L86.7875 50.5636L86.5499 51.1251C86.3035 51.5402 86.116 51.9866 85.9911 52.4532L85.7399 53.0471ZM89.2657 51.9598C89.9419 51.2591 90.944 50.9775 91.8868 51.2248C92.8287 51.4716 93.5656 52.2067 93.8122 53.1495C94.0592 54.0925 93.7771 55.0934 93.0771 55.771C92.0105 56.7901 90.3323 56.7901 89.2657 55.771C88.2136 54.7181 88.2136 53.0125 89.2657 51.9598Z" fill="white"/>
<path d="M76.7188 49.2774L77.7644 46.7949L80.0114 47.7418L78.9652 50.2244L76.7188 49.2774Z" fill="white"/>
<path d="M72.252 47.3585L73.2999 44.875L75.5486 45.8235L74.501 48.3063L72.252 47.3585Z" fill="white"/>
<path d="M81.2109 51.1733L82.2566 48.6914L84.5028 49.6378L83.4574 52.119L81.2109 51.1733Z" fill="white"/>
<path d="M96.7285 88.4041L97.6769 86.1562L100.16 87.2046L99.2122 89.4518L96.7285 88.4041Z" fill="white"/>
<path d="M92.9375 97.3977L93.8856 95.1484L96.3691 96.1963L95.4203 98.4445L92.9375 97.3977Z" fill="white"/>
<path d="M94.832 92.901L95.7804 90.6543L98.2636 91.7016L97.3157 93.9491L94.832 92.901Z" fill="white"/>
<path d="M51.041 111.203L52.0862 108.721L54.3329 109.667L53.2875 112.149L51.041 111.203Z" fill="white"/>
<path d="M55.5332 113.101L56.5789 110.617L58.8248 111.565L57.7799 114.047L55.5332 113.101Z" fill="white"/>
<path d="M46.5898 109.326L47.6378 106.842L49.887 107.79L48.8394 110.274L46.5898 109.326Z" fill="white"/>
<path d="M45.3902 105.896L45.2743 105.847C45.318 105.593 45.344 105.336 45.3502 105.077C45.3456 104.118 45.0827 103.177 44.5888 102.354L49.3652 97.5776L47.4592 95.6719L42.6722 100.459C41.6184 99.8728 40.4037 99.6441 39.2086 99.8066L39.1412 99.6467L38.2386 100.028C37.9536 100.119 37.6763 100.236 37.4118 100.376L36.6577 100.694L36.7084 100.813C36.5104 100.95 36.3237 101.102 36.148 101.266C34.7471 102.62 34.1838 104.624 34.6782 106.509C35.1718 108.393 36.6435 109.865 38.5283 110.359C40.4125 110.852 42.4173 110.29 43.7714 108.889C43.9359 108.713 44.0891 108.527 44.2302 108.331L44.3434 108.379L44.5805 107.819C44.8271 107.403 45.0154 106.957 45.1392 106.489L45.3902 105.896ZM41.8651 106.984C40.7983 108.002 39.1195 108.002 38.054 106.984C37.0011 105.931 37.0011 104.224 38.053 103.171C39.1061 102.118 40.8131 102.118 41.8651 103.171C42.9181 104.224 42.9181 105.931 41.8651 106.984Z" fill="white"/>
<path d="M32.8652 67.2393L33.8133 64.9922L36.2974 66.0403L35.349 68.2877L32.8652 67.2393Z" fill="white"/>
<path d="M30.9707 71.7366L31.9192 69.4883L34.4031 70.5359L33.4542 72.7845L30.9707 71.7366Z" fill="white"/>
<path d="M34.7617 62.745L35.7093 60.498L38.1933 61.5454L37.2447 63.7926L34.7617 62.745Z" fill="white"/>
<path d="M30.9688 87.2038L33.452 86.1562L34.4012 88.4047L31.9175 89.4526L30.9688 87.2038Z" fill="white"/>
<path d="M34.7617 96.1957L37.2447 95.1484L38.1933 97.3952L35.7093 98.4428L34.7617 96.1957Z" fill="white"/>
<path d="M32.8672 91.6999L35.3502 90.6523L36.298 92.8999L33.8146 93.9475L32.8672 91.6999Z" fill="white"/>
<path d="M81.2441 107.789L83.4919 106.842L84.5398 109.325L82.2917 110.273L81.2441 107.789Z" fill="white"/>
<path d="M72.25 111.584L74.4985 110.635L75.5461 113.118L73.2974 114.068L72.25 111.584Z" fill="white"/>
<path d="M76.7461 109.686L78.9936 108.738L80.0419 111.222L77.7937 112.17L76.7461 109.686Z" fill="white"/>
<path d="M70.5519 113.837C70.5308 113.785 70.5106 113.734 70.4871 113.684L69.9985 112.523L69.8274 112.596C69.0999 111.643 68.0738 110.961 66.9138 110.659V103.729H64.2178V110.659C63.0553 110.962 62.0274 111.646 61.2989 112.602L61.1277 112.529L60.6383 113.69C60.6164 113.739 60.5959 113.79 60.5743 113.842L60.0801 115.013L60.2535 115.085C59.8891 117.201 60.8144 119.331 62.6095 120.508C64.4045 121.686 66.7268 121.686 68.5218 120.508C70.3168 119.331 71.2428 117.201 70.8784 115.085L71.0507 115.013L70.5519 113.837ZM65.5658 118.553C64.0775 118.553 62.8711 117.347 62.8711 115.858C62.8711 114.369 64.0775 113.163 65.5658 113.163C67.0541 113.163 68.2613 114.369 68.2613 115.858C68.2613 117.347 67.0541 118.553 65.5658 118.553Z" fill="white"/>
<path d="M92.9355 61.5442L95.4185 60.4961L96.3674 62.7457L93.8836 63.793L92.9355 61.5442Z" fill="white"/>
<path d="M96.7266 70.5359L99.2105 69.4883L100.158 71.7355L97.6747 72.7831L96.7266 70.5359Z" fill="white"/>
<path d="M94.832 66.0395L97.316 64.9922L98.2628 67.2392L95.7796 68.2869L94.832 66.0395Z" fill="white"/>
<path d="M60.5794 45.1035C60.601 45.1548 60.6215 45.2064 60.644 45.2553L61.133 46.4164L61.3047 46.3434C62.032 47.2962 63.058 47.9782 64.2178 48.2811V55.2111H66.9138V48.2811C68.0765 47.9779 69.1044 47.2946 69.8323 46.338L70.0039 46.4113L70.493 45.2499C70.516 45.2008 70.5357 45.1496 70.5579 45.0983L71.0507 43.9269L70.8784 43.8545C70.9232 43.5993 70.9485 43.3412 70.9565 43.0821C70.9565 40.1049 68.5429 37.6914 65.5658 37.6914C62.5892 37.6914 60.1748 40.1049 60.1748 43.0821C60.1827 43.3412 60.2086 43.5993 60.2535 43.8545L60.0801 43.9269L60.5794 45.1035ZM65.5658 40.3869C67.0541 40.3869 68.2613 41.5935 68.2613 43.0821C68.2613 44.5704 67.0541 45.7779 65.5658 45.7779C64.0775 45.7779 62.8711 44.5704 62.8711 43.0821C62.8711 41.5935 64.0775 40.3869 65.5658 40.3869Z" fill="white"/>
<path d="M46.5918 49.6144L48.8391 48.666L49.8864 51.1497L47.6394 52.0974L46.5918 49.6144Z" fill="white"/>
<path d="M55.584 45.8242L57.831 44.877L58.8788 47.3598L56.6313 48.3083L55.584 45.8242Z" fill="white"/>
<path d="M51.0879 47.7188L53.3356 46.7715L54.3831 49.2541L52.1355 50.2026L51.0879 47.7188Z" fill="white"/>
<path d="M39.3704 79.4238H23.8187V29.9159L8.54297 34.379V22.6001L37.944 12.4316H39.3704V79.4238Z" fill="#666666"/>
</svg>
