<svg width="539" height="512" viewBox="0 0 539 512" fill="none" xmlns="http://www.w3.org/2000/svg">
<g opacity="0.2">
<circle cx="16.5" cy="16" r="16" fill="#00B0FE"/>
<circle cx="62.5" cy="16" r="16" fill="#00B0FE"/>
<circle cx="108.5" cy="16" r="16" fill="#00B0FE"/>
<circle cx="154.5" cy="16" r="16" fill="#00B0FE"/>
<circle cx="200.5" cy="16" r="16" fill="#00B0FE"/>
<circle cx="246.5" cy="16" r="16" fill="#00B0FE"/>
<circle cx="292.5" cy="16" r="16" fill="#00B0FE"/>
<circle cx="338.5" cy="16" r="16" fill="#00B0FE"/>
<circle cx="384.5" cy="16" r="16" fill="#00B0FE"/>
<circle cx="430.5" cy="16" r="16" fill="#00B0FE"/>
<circle cx="476.5" cy="16" r="16" fill="#00B0FE"/>
<circle cx="522.5" cy="16" r="16" fill="#00B0FE"/>
<circle cx="16.5" cy="76" r="16" fill="#00B0FE"/>
<circle cx="62.5" cy="76" r="16" fill="#00B0FE"/>
<circle cx="108.5" cy="76" r="16" fill="#00B0FE"/>
<circle cx="154.5" cy="76" r="16" fill="#00B0FE"/>
<circle cx="200.5" cy="76" r="16" fill="#00B0FE"/>
<circle cx="246.5" cy="76" r="16" fill="#00B0FE"/>
<circle cx="292.5" cy="76" r="16" fill="#00B0FE"/>
<circle cx="338.5" cy="76" r="16" fill="#00B0FE"/>
<circle cx="384.5" cy="76" r="16" fill="#00B0FE"/>
<circle cx="430.5" cy="76" r="16" fill="#00B0FE"/>
<circle cx="476.5" cy="76" r="16" fill="#00B0FE"/>
<circle cx="522.5" cy="76" r="16" fill="#00B0FE"/>
<circle cx="16.5" cy="136" r="16" fill="#00B0FE"/>
<circle cx="62.5" cy="136" r="16" fill="#00B0FE"/>
<circle cx="108.5" cy="136" r="16" fill="#00B0FE"/>
<circle cx="154.5" cy="136" r="16" fill="#00B0FE"/>
<circle cx="200.5" cy="136" r="16" fill="#00B0FE"/>
<circle cx="246.5" cy="136" r="16" fill="#00B0FE"/>
<circle cx="292.5" cy="136" r="16" fill="#00B0FE"/>
<circle cx="338.5" cy="136" r="16" fill="#00B0FE"/>
<circle cx="384.5" cy="136" r="16" fill="#00B0FE"/>
<circle cx="430.5" cy="136" r="16" fill="#00B0FE"/>
<circle cx="476.5" cy="136" r="16" fill="#00B0FE"/>
<circle cx="522.5" cy="136" r="16" fill="#00B0FE"/>
<circle cx="16.5" cy="196" r="16" fill="#00B0FE"/>
<circle cx="62.5" cy="196" r="16" fill="#00B0FE"/>
<circle cx="108.5" cy="196" r="16" fill="#00B0FE"/>
<circle cx="154.5" cy="196" r="16" fill="#00B0FE"/>
<circle cx="200.5" cy="196" r="16" fill="#00B0FE"/>
<circle cx="246.5" cy="196" r="16" fill="#00B0FE"/>
<circle cx="292.5" cy="196" r="16" fill="#00B0FE"/>
<circle cx="338.5" cy="196" r="16" fill="#00B0FE"/>
<circle cx="384.5" cy="196" r="16" fill="#00B0FE"/>
<circle cx="430.5" cy="196" r="16" fill="#00B0FE"/>
<circle cx="476.5" cy="196" r="16" fill="#00B0FE"/>
<circle cx="522.5" cy="196" r="16" fill="#00B0FE"/>
<circle cx="16.5" cy="256" r="16" fill="#00B0FE"/>
<circle cx="62.5" cy="256" r="16" fill="#00B0FE"/>
<circle cx="108.5" cy="256" r="16" fill="#00B0FE"/>
<circle cx="154.5" cy="256" r="16" fill="#00B0FE"/>
<circle cx="200.5" cy="256" r="16" fill="#00B0FE"/>
<circle cx="246.5" cy="256" r="16" fill="#00B0FE"/>
<circle cx="292.5" cy="256" r="16" fill="#00B0FE"/>
<circle cx="338.5" cy="256" r="16" fill="#00B0FE"/>
<circle cx="384.5" cy="256" r="16" fill="#00B0FE"/>
<circle cx="430.5" cy="256" r="16" fill="#00B0FE"/>
<circle cx="476.5" cy="256" r="16" fill="#00B0FE"/>
<circle cx="522.5" cy="256" r="16" fill="#00B0FE"/>
<circle cx="16.5" cy="316" r="16" fill="#00B0FE"/>
<circle cx="62.5" cy="316" r="16" fill="#00B0FE"/>
<circle cx="108.5" cy="316" r="16" fill="#00B0FE"/>
<circle cx="154.5" cy="316" r="16" fill="#00B0FE"/>
<circle cx="200.5" cy="316" r="16" fill="#00B0FE"/>
<circle cx="246.5" cy="316" r="16" fill="#00B0FE"/>
<circle cx="292.5" cy="316" r="16" fill="#00B0FE"/>
<circle cx="338.5" cy="316" r="16" fill="#00B0FE"/>
<circle cx="384.5" cy="316" r="16" fill="#00B0FE"/>
<circle cx="430.5" cy="316" r="16" fill="#00B0FE"/>
<circle cx="476.5" cy="316" r="16" fill="#00B0FE"/>
<circle cx="522.5" cy="316" r="16" fill="#00B0FE"/>
<circle cx="16.5" cy="376" r="16" fill="#00B0FE"/>
<circle cx="62.5" cy="376" r="16" fill="#00B0FE"/>
<circle cx="108.5" cy="376" r="16" fill="#00B0FE"/>
<circle cx="154.5" cy="376" r="16" fill="#00B0FE"/>
<circle cx="200.5" cy="376" r="16" fill="#00B0FE"/>
<circle cx="246.5" cy="376" r="16" fill="#00B0FE"/>
<circle cx="292.5" cy="376" r="16" fill="#00B0FE"/>
<circle cx="338.5" cy="376" r="16" fill="#00B0FE"/>
<circle cx="384.5" cy="376" r="16" fill="#00B0FE"/>
<circle cx="430.5" cy="376" r="16" fill="#00B0FE"/>
<circle cx="476.5" cy="376" r="16" fill="#00B0FE"/>
<circle cx="522.5" cy="376" r="16" fill="#00B0FE"/>
<circle cx="16.5" cy="436" r="16" fill="#00B0FE"/>
<circle cx="62.5" cy="436" r="16" fill="#00B0FE"/>
<circle cx="108.5" cy="436" r="16" fill="#00B0FE"/>
<circle cx="154.5" cy="436" r="16" fill="#00B0FE"/>
<circle cx="200.5" cy="436" r="16" fill="#00B0FE"/>
<circle cx="246.5" cy="436" r="16" fill="#00B0FE"/>
<circle cx="292.5" cy="436" r="16" fill="#00B0FE"/>
<circle cx="338.5" cy="436" r="16" fill="#00B0FE"/>
<circle cx="384.5" cy="436" r="16" fill="#00B0FE"/>
<circle cx="430.5" cy="436" r="16" fill="#00B0FE"/>
<circle cx="476.5" cy="436" r="16" fill="#00B0FE"/>
<circle cx="522.5" cy="436" r="16" fill="#00B0FE"/>
<circle cx="16.5" cy="496" r="16" fill="#00B0FE"/>
<circle cx="62.5" cy="496" r="16" fill="#00B0FE"/>
<circle cx="108.5" cy="496" r="16" fill="#00B0FE"/>
<circle cx="154.5" cy="496" r="16" fill="#00B0FE"/>
<circle cx="200.5" cy="496" r="16" fill="#00B0FE"/>
<circle cx="246.5" cy="496" r="16" fill="#00B0FE"/>
<circle cx="292.5" cy="496" r="16" fill="#00B0FE"/>
<circle cx="338.5" cy="496" r="16" fill="#00B0FE"/>
<circle cx="384.5" cy="496" r="16" fill="#00B0FE"/>
<circle cx="430.5" cy="496" r="16" fill="#00B0FE"/>
<circle cx="476.5" cy="496" r="16" fill="#00B0FE"/>
<circle cx="522.5" cy="496" r="16" fill="#00B0FE"/>
</g>
</svg>
