<svg width="538" height="512" viewBox="0 0 538 512" fill="none" xmlns="http://www.w3.org/2000/svg">
<g opacity="0.1">
<circle cx="16" cy="16" r="16" fill="#6F45EE"/>
<circle cx="62" cy="16" r="16" fill="#6F45EE"/>
<circle cx="108" cy="16" r="16" fill="#6F45EE"/>
<circle cx="154" cy="16" r="16" fill="#6F45EE"/>
<circle cx="200" cy="16" r="16" fill="#6F45EE"/>
<circle cx="246" cy="16" r="16" fill="#6F45EE"/>
<circle cx="292" cy="16" r="16" fill="#6F45EE"/>
<circle cx="338" cy="16" r="16" fill="#6F45EE"/>
<circle cx="384" cy="16" r="16" fill="#6F45EE"/>
<circle cx="430" cy="16" r="16" fill="#6F45EE"/>
<circle cx="476" cy="16" r="16" fill="#6F45EE"/>
<circle cx="522" cy="16" r="16" fill="#6F45EE"/>
<circle cx="16" cy="76" r="16" fill="#6F45EE"/>
<circle cx="62" cy="76" r="16" fill="#6F45EE"/>
<circle cx="108" cy="76" r="16" fill="#6F45EE"/>
<circle cx="154" cy="76" r="16" fill="#6F45EE"/>
<circle cx="200" cy="76" r="16" fill="#6F45EE"/>
<circle cx="246" cy="76" r="16" fill="#6F45EE"/>
<circle cx="292" cy="76" r="16" fill="#6F45EE"/>
<circle cx="338" cy="76" r="16" fill="#6F45EE"/>
<circle cx="384" cy="76" r="16" fill="#6F45EE"/>
<circle cx="430" cy="76" r="16" fill="#6F45EE"/>
<circle cx="476" cy="76" r="16" fill="#6F45EE"/>
<circle cx="522" cy="76" r="16" fill="#6F45EE"/>
<circle cx="16" cy="136" r="16" fill="#6F45EE"/>
<circle cx="62" cy="136" r="16" fill="#6F45EE"/>
<circle cx="108" cy="136" r="16" fill="#6F45EE"/>
<circle cx="154" cy="136" r="16" fill="#6F45EE"/>
<circle cx="200" cy="136" r="16" fill="#6F45EE"/>
<circle cx="246" cy="136" r="16" fill="#6F45EE"/>
<circle cx="292" cy="136" r="16" fill="#6F45EE"/>
<circle cx="338" cy="136" r="16" fill="#6F45EE"/>
<circle cx="384" cy="136" r="16" fill="#6F45EE"/>
<circle cx="430" cy="136" r="16" fill="#6F45EE"/>
<circle cx="476" cy="136" r="16" fill="#6F45EE"/>
<circle cx="522" cy="136" r="16" fill="#6F45EE"/>
<circle cx="16" cy="196" r="16" fill="#6F45EE"/>
<circle cx="62" cy="196" r="16" fill="#6F45EE"/>
<circle cx="108" cy="196" r="16" fill="#6F45EE"/>
<circle cx="154" cy="196" r="16" fill="#6F45EE"/>
<circle cx="200" cy="196" r="16" fill="#6F45EE"/>
<circle cx="246" cy="196" r="16" fill="#6F45EE"/>
<circle cx="292" cy="196" r="16" fill="#6F45EE"/>
<circle cx="338" cy="196" r="16" fill="#6F45EE"/>
<circle cx="384" cy="196" r="16" fill="#6F45EE"/>
<circle cx="430" cy="196" r="16" fill="#6F45EE"/>
<circle cx="476" cy="196" r="16" fill="#6F45EE"/>
<circle cx="522" cy="196" r="16" fill="#6F45EE"/>
<circle cx="16" cy="256" r="16" fill="#6F45EE"/>
<circle cx="62" cy="256" r="16" fill="#6F45EE"/>
<circle cx="108" cy="256" r="16" fill="#6F45EE"/>
<circle cx="154" cy="256" r="16" fill="#6F45EE"/>
<circle cx="200" cy="256" r="16" fill="#6F45EE"/>
<circle cx="246" cy="256" r="16" fill="#6F45EE"/>
<circle cx="292" cy="256" r="16" fill="#6F45EE"/>
<circle cx="338" cy="256" r="16" fill="#6F45EE"/>
<circle cx="384" cy="256" r="16" fill="#6F45EE"/>
<circle cx="430" cy="256" r="16" fill="#6F45EE"/>
<circle cx="476" cy="256" r="16" fill="#6F45EE"/>
<circle cx="522" cy="256" r="16" fill="#6F45EE"/>
<circle cx="16" cy="316" r="16" fill="#6F45EE"/>
<circle cx="62" cy="316" r="16" fill="#6F45EE"/>
<circle cx="108" cy="316" r="16" fill="#6F45EE"/>
<circle cx="154" cy="316" r="16" fill="#6F45EE"/>
<circle cx="200" cy="316" r="16" fill="#6F45EE"/>
<circle cx="246" cy="316" r="16" fill="#6F45EE"/>
<circle cx="292" cy="316" r="16" fill="#6F45EE"/>
<circle cx="338" cy="316" r="16" fill="#6F45EE"/>
<circle cx="384" cy="316" r="16" fill="#6F45EE"/>
<circle cx="430" cy="316" r="16" fill="#6F45EE"/>
<circle cx="476" cy="316" r="16" fill="#6F45EE"/>
<circle cx="522" cy="316" r="16" fill="#6F45EE"/>
<circle cx="16" cy="376" r="16" fill="#6F45EE"/>
<circle cx="62" cy="376" r="16" fill="#6F45EE"/>
<circle cx="108" cy="376" r="16" fill="#6F45EE"/>
<circle cx="154" cy="376" r="16" fill="#6F45EE"/>
<circle cx="200" cy="376" r="16" fill="#6F45EE"/>
<circle cx="246" cy="376" r="16" fill="#6F45EE"/>
<circle cx="292" cy="376" r="16" fill="#6F45EE"/>
<circle cx="338" cy="376" r="16" fill="#6F45EE"/>
<circle cx="384" cy="376" r="16" fill="#6F45EE"/>
<circle cx="430" cy="376" r="16" fill="#6F45EE"/>
<circle cx="476" cy="376" r="16" fill="#6F45EE"/>
<circle cx="522" cy="376" r="16" fill="#6F45EE"/>
<circle cx="16" cy="436" r="16" fill="#6F45EE"/>
<circle cx="62" cy="436" r="16" fill="#6F45EE"/>
<circle cx="108" cy="436" r="16" fill="#6F45EE"/>
<circle cx="154" cy="436" r="16" fill="#6F45EE"/>
<circle cx="200" cy="436" r="16" fill="#6F45EE"/>
<circle cx="246" cy="436" r="16" fill="#6F45EE"/>
<circle cx="292" cy="436" r="16" fill="#6F45EE"/>
<circle cx="338" cy="436" r="16" fill="#6F45EE"/>
<circle cx="384" cy="436" r="16" fill="#6F45EE"/>
<circle cx="430" cy="436" r="16" fill="#6F45EE"/>
<circle cx="476" cy="436" r="16" fill="#6F45EE"/>
<circle cx="522" cy="436" r="16" fill="#6F45EE"/>
<circle cx="16" cy="496" r="16" fill="#6F45EE"/>
<circle cx="62" cy="496" r="16" fill="#6F45EE"/>
<circle cx="108" cy="496" r="16" fill="#6F45EE"/>
<circle cx="154" cy="496" r="16" fill="#6F45EE"/>
<circle cx="200" cy="496" r="16" fill="#6F45EE"/>
<circle cx="246" cy="496" r="16" fill="#6F45EE"/>
<circle cx="292" cy="496" r="16" fill="#6F45EE"/>
<circle cx="338" cy="496" r="16" fill="#6F45EE"/>
<circle cx="384" cy="496" r="16" fill="#6F45EE"/>
<circle cx="430" cy="496" r="16" fill="#6F45EE"/>
<circle cx="476" cy="496" r="16" fill="#6F45EE"/>
<circle cx="522" cy="496" r="16" fill="#6F45EE"/>
</g>
</svg>
