<svg width="15" height="14" viewBox="0 0 15 14" fill="none" xmlns="http://www.w3.org/2000/svg">
<path d="M7.49398 0.333984C3.81398 0.333984 0.833984 3.32065 0.833984 7.00065C0.833984 10.6807 3.81398 13.6673 7.49398 13.6673C11.1807 13.6673 14.1673 10.6807 14.1673 7.00065C14.1673 3.32065 11.1807 0.333984 7.49398 0.333984ZM7.50065 12.334C4.55398 12.334 2.16732 9.94732 2.16732 7.00065C2.16732 4.05398 4.55398 1.66732 7.50065 1.66732C10.4473 1.66732 12.834 4.05398 12.834 7.00065C12.834 9.94732 10.4473 12.334 7.50065 12.334ZM7.35398 3.66732H7.31398C7.04732 3.66732 6.83398 3.88065 6.83398 4.14732V7.29398C6.83398 7.52732 6.95398 7.74732 7.16065 7.86732L9.92732 9.52732C10.154 9.66065 10.4473 9.59398 10.5807 9.36732C10.6141 9.31334 10.6364 9.25317 10.6461 9.1904C10.6559 9.12763 10.6529 9.06355 10.6373 9.00196C10.6218 8.94038 10.594 8.88255 10.5556 8.83193C10.5172 8.78131 10.4691 8.73893 10.414 8.70732L7.83398 7.17398V4.14732C7.83398 3.88065 7.62065 3.66732 7.35398 3.66732Z" fill="#6CE08B"/>
</svg>
