<svg width="62" height="53" viewBox="0 0 62 53" fill="none" xmlns="http://www.w3.org/2000/svg">
<path d="M61.75 0.249995V9.74999C56.75 10.5833 53.25 12.3333 51.25 15C49.25 17.6667 48.25 22.4167 48.25 29.25H61V53H36.5V33C36.5 22.6667 38.4167 14.6667 42.25 8.99999C46.0833 3.16666 52.5833 0.249995 61.75 0.249995ZM25.75 0.249995V9.74999C20.75 10.5833 17.25 12.3333 15.25 15C13.25 17.6667 12.25 22.4167 12.25 29.25H25V53H0.5V33C0.5 22.6667 2.41667 14.6667 6.25 8.99999C10.0833 3.16666 16.5833 0.249995 25.75 0.249995Z" fill="#6CE08B"/>
</svg>
