<svg width="136" height="140" viewBox="0 0 136 140" fill="none" xmlns="http://www.w3.org/2000/svg">
<path d="M61.4429 26.6188C69.7729 21.8094 80.036 21.8094 88.366 26.6188L113.904 41.3632C122.234 46.1726 127.366 55.0606 127.366 64.6793V94.1681C127.366 103.787 122.234 112.675 113.904 117.484L88.366 132.229C80.036 137.038 69.7729 137.038 61.4429 132.229L35.9049 117.484C27.5748 112.675 22.4434 103.787 22.4434 94.1681V64.6793C22.4434 55.0606 27.5748 46.1726 35.9049 41.3632L61.4429 26.6188Z" fill="#6F45EE"/>
<path d="M74.8423 40.4142C74.7699 39.592 74.0507 38.9822 73.2292 39.0433C72.402 39.0965 71.7722 39.8078 71.821 40.6361C71.868 41.4371 72.5323 42.0552 73.3243 42.0552C73.3542 42.0552 73.384 42.0542 73.4143 42.0525C73.4289 42.0515 73.4586 42.0494 73.4732 42.0482C74.3024 41.9751 74.9156 41.2434 74.8423 40.4142Z" fill="white"/>
<path d="M95.2484 46.5476C94.6303 45.9928 93.6792 46.0425 93.1223 46.66C92.5648 47.2783 92.6141 48.2314 93.2322 48.7889C93.2404 48.7963 93.2601 48.8137 93.2683 48.8208C93.5532 49.0668 93.9036 49.187 94.2523 49.187C94.6756 49.187 95.0964 49.0098 95.3944 48.6643C95.9352 48.0375 95.8688 47.0928 95.2484 46.5476Z" fill="white"/>
<path d="M87.2211 41.4439C86.4619 41.1106 85.5749 41.4532 85.2377 42.2119C84.8997 42.9727 85.2421 43.8636 86.0028 44.2015L86.054 44.2236C86.2421 44.3011 86.4368 44.3378 86.6284 44.3378C87.2207 44.3378 87.7826 43.9865 88.0225 43.4051C88.3377 42.6413 87.9791 41.7674 87.2211 41.4439Z" fill="white"/>
<path d="M98.5705 49.9874C98.5684 49.9843 98.5564 49.97 98.5541 49.9672C98.0251 49.3274 97.0826 49.2415 96.4408 49.7687C95.7989 50.2954 95.7089 51.2478 96.2333 51.8917C96.5314 52.2572 96.9652 52.4468 97.4027 52.4468C97.7375 52.4468 98.0743 52.336 98.3541 52.108C98.9994 51.5822 99.0963 50.6326 98.5705 49.9874Z" fill="white"/>
<path d="M78.0031 39.1009L77.988 39.0995C77.1589 39.0274 76.4347 39.64 76.3613 40.4692C76.2883 41.2986 76.9089 42.0306 77.7381 42.104C77.7832 42.1079 77.8281 42.1099 77.8724 42.1099C78.6449 42.1099 79.3031 41.5191 79.3722 40.735C79.4453 39.9057 78.8324 39.1742 78.0031 39.1009Z" fill="white"/>
<path d="M82.7341 39.9127C82.7204 39.9089 82.6919 39.9016 82.678 39.8981C81.8695 39.7024 81.0558 40.1989 80.8593 41.0076C80.6635 41.8132 81.1562 42.6253 81.9593 42.8261C82.086 42.859 82.213 42.8747 82.3382 42.8747C83.0012 42.8746 83.6089 42.4337 83.7917 41.7635C84.0107 40.9602 83.5373 40.1317 82.7341 39.9127Z" fill="white"/>
<path d="M91.4705 43.6988C91.4527 43.6869 91.4347 43.6755 91.4165 43.6643C90.7094 43.2252 89.7813 43.4431 89.3422 44.1503C88.9048 44.8538 89.1189 45.7784 89.8179 46.2202C90.0699 46.3826 90.3529 46.4605 90.6328 46.4605C91.1198 46.4605 91.598 46.225 91.8885 45.7891C92.3502 45.0965 92.1631 44.1605 91.4705 43.6988Z" fill="white"/>
<path d="M103.956 70.5684C103.13 70.484 102.388 71.0854 102.303 71.9135L102.299 71.9504C102.226 72.7796 102.838 73.516 103.668 73.5891C103.713 73.5931 103.758 73.5951 103.803 73.5951C104.575 73.5951 105.232 73.0086 105.301 72.2248L103.802 72.0678L105.301 72.2222C105.387 71.394 104.784 70.6537 103.956 70.5684Z" fill="white"/>
<path d="M102.115 79.4309C101.356 79.0882 100.463 79.4254 100.12 80.1841L100.099 80.2325C99.7757 80.9994 100.135 81.8837 100.902 82.2074C101.094 82.288 101.292 82.3262 101.488 82.3262C102.07 82.3261 102.624 81.9863 102.871 81.42C103.209 80.6624 102.872 79.7726 102.115 79.4309Z" fill="white"/>
<path d="M101.31 53.9074C101.303 53.8953 101.288 53.8705 101.281 53.8587C100.851 53.1462 99.9259 52.9183 99.2132 53.3477C98.5031 53.7758 98.2732 54.6979 98.6962 55.4097C98.9756 55.8894 99.4803 56.1583 99.9998 56.1583C100.252 56.1583 100.507 56.0949 100.742 55.9621C101.466 55.5515 101.72 54.6317 101.31 53.9074Z" fill="white"/>
<path d="M105.403 67.4616L105.402 67.4465C105.353 66.6155 104.641 65.9884 103.809 66.0379C102.978 66.0868 102.344 66.8076 102.393 67.6386C102.44 68.4397 103.105 69.0575 103.897 69.0575C103.926 69.0575 103.957 69.0567 103.987 69.0548C104.818 69.006 105.452 68.2926 105.403 67.4616Z" fill="white"/>
<path d="M103.38 58.1641L101.975 58.7091L103.379 58.1606C103.076 57.385 102.202 57.0019 101.426 57.3049C100.651 57.6081 100.268 58.4823 100.571 59.2578C100.573 59.2628 100.58 59.2819 100.582 59.2869C100.819 59.8734 101.381 60.2279 101.977 60.2279C102.163 60.2279 102.353 60.1931 102.536 60.1199C103.308 59.8128 103.684 58.9364 103.38 58.1641Z" fill="white"/>
<path d="M104.768 62.7578C104.766 62.7478 104.761 62.7231 104.758 62.713C104.574 61.9016 103.767 61.3948 102.955 61.5787C102.146 61.7623 101.638 62.5673 101.817 63.3772C101.968 64.0838 102.593 64.5695 103.29 64.5695C103.391 64.5695 103.493 64.5594 103.596 64.5384C104.411 64.3704 104.936 63.5733 104.768 62.7578Z" fill="white"/>
<path d="M103.373 75.064C102.567 74.856 101.746 75.3383 101.538 76.1448C101.319 76.9479 101.792 77.7766 102.596 77.9956C102.728 78.0317 102.862 78.049 102.993 78.049C103.656 78.0492 104.264 77.6083 104.446 76.9378C104.448 76.9311 104.454 76.9095 104.456 76.9027C104.663 76.0966 104.179 75.2717 103.373 75.064Z" fill="white"/>
<path d="M47.7198 60.8962C46.9103 60.7004 46.0958 61.197 45.8996 62.0059L45.8962 62.0205C45.7001 62.8296 46.1987 63.6372 47.0077 63.8333C47.1259 63.862 47.2442 63.8757 47.3607 63.8757C48.0421 63.8757 48.6621 63.4071 48.8296 62.7163C49.0256 61.9071 48.5289 61.0924 47.7198 60.8962Z" fill="white"/>
<path d="M49.3701 56.6646C48.6024 56.3425 47.7191 56.7043 47.3971 57.4716L47.3924 57.4826C47.0687 58.2497 47.4283 59.1337 48.1952 59.4576C48.3866 59.5382 48.5851 59.5765 48.7805 59.5765C49.3684 59.5765 49.9273 59.2302 50.1702 58.6545L50.1773 58.6376C50.4993 57.8699 50.1378 56.9866 49.3701 56.6646Z" fill="white"/>
<path d="M48.7961 75.5078C48.6115 74.696 47.8037 74.187 46.9919 74.3719C46.1802 74.5565 45.6716 75.3642 45.8562 76.1759C45.8578 76.1829 45.8628 76.2046 45.8645 76.2116C46.0319 76.9019 46.65 77.3671 47.3306 77.3671C47.4476 77.3671 47.5667 77.3533 47.6855 77.3247C48.4945 77.1285 48.9922 76.3169 48.7961 75.5078Z" fill="white"/>
<path d="M52.0738 83.4125C51.6436 82.6997 50.7171 82.4703 50.0042 82.9007C49.2914 83.3309 49.0623 84.2575 49.4923 84.9703C49.4958 84.9757 49.507 84.994 49.5103 84.9992C49.7961 85.4596 50.2897 85.7131 50.7947 85.7131C51.0658 85.7131 51.3401 85.64 51.587 85.4867C52.2943 85.0475 52.5129 84.1199 52.0738 83.4125Z" fill="white"/>
<path d="M48.1341 71.2543C48.073 70.4239 47.351 69.8007 46.52 69.8615C45.6897 69.9225 45.0662 70.6451 45.1272 71.4754L45.1284 71.4902C45.1868 72.2826 45.8467 72.8799 46.6284 72.8799C46.666 72.8799 46.7038 72.8783 46.7417 72.8756C47.572 72.8147 48.195 72.0846 48.1341 71.2543Z" fill="white"/>
<path d="M46.776 65.3321C45.9479 65.259 45.2151 65.8719 45.1419 66.7011C45.1413 66.7085 45.1394 66.7306 45.1389 66.738C45.0778 67.5683 45.7012 68.2944 46.5314 68.3555C46.5692 68.3584 46.6068 68.3596 46.6442 68.3596C47.4262 68.3596 48.0867 67.7585 48.1451 66.9662C48.2182 66.1369 47.6053 65.4053 46.776 65.3321Z" fill="white"/>
<path d="M70.3315 40.8844C70.1589 40.0703 69.3595 39.5498 68.5442 39.7225L68.4921 39.7344C67.6826 39.9276 67.1844 40.7401 67.3775 41.5495C67.5424 42.2421 68.1615 42.7078 68.8437 42.7078C68.9564 42.7078 69.0708 42.6949 69.1852 42.6683C69.9908 42.4889 70.5031 41.6936 70.3315 40.8844Z" fill="white"/>
<path d="M61.7848 43.8176C61.3692 43.0963 60.4473 42.8483 59.7261 43.2642C59.7119 43.2725 59.6849 43.2887 59.6709 43.2973C58.9638 43.7361 58.7472 44.6646 59.1859 45.372C59.4709 45.8317 59.9638 46.0845 60.4683 46.0845C60.7361 46.0845 61.0071 46.0134 61.2518 45.8641C61.9573 45.443 62.1964 44.532 61.7848 43.8176Z" fill="white"/>
<path d="M65.944 42.0214C65.6518 41.2418 64.7827 40.8472 64.0033 41.1392C63.9879 41.1449 63.9587 41.1565 63.9436 41.1626C63.1742 41.4802 62.8088 42.3607 63.1261 43.1303C63.3658 43.712 63.9283 44.0632 64.521 44.0632C64.7089 44.0632 64.8999 44.0279 65.0845 43.9534C65.8491 43.6529 66.2337 42.7932 65.944 42.0214Z" fill="white"/>
<path d="M57.952 46.2418C57.4201 45.6013 56.4697 45.5132 55.8292 46.0447L55.8069 46.0635C55.1714 46.6012 55.0926 47.5521 55.6303 48.1876C55.9284 48.5399 56.3536 48.7213 56.7816 48.7213C57.1257 48.7213 57.4719 48.6041 57.7552 48.3644C58.3957 47.8327 58.4838 46.8823 57.952 46.2418Z" fill="white"/>
<path d="M54.5579 49.2508C53.9329 48.7009 52.9803 48.7616 52.4303 49.3865C52.4276 49.3896 52.4149 49.4041 52.4122 49.4072C51.8692 50.0349 51.9405 50.978 52.566 51.5238C52.8501 51.772 53.202 51.893 53.5531 51.893C53.9745 51.893 54.3946 51.7181 54.6937 51.3782C55.2436 50.7532 55.1828 49.8007 54.5579 49.2508Z" fill="white"/>
<path d="M50.1191 79.587C49.8057 78.8158 48.9266 78.4443 48.1553 78.7577C47.384 79.0711 47.0127 79.9504 47.3261 80.7216C47.3283 80.7268 47.3361 80.7457 47.3384 80.751C47.5804 81.3285 48.1404 81.6767 48.7299 81.6767C48.9241 81.6767 49.1216 81.6388 49.3117 81.5591C50.0794 81.2371 50.4411 80.3547 50.1191 79.587Z" fill="white"/>
<path d="M51.6669 52.7485C50.9597 52.3092 50.0304 52.5268 49.5913 53.2343L49.5832 53.2472C49.1441 53.9546 49.3656 54.8774 50.073 55.3165C50.3188 55.4691 50.5919 55.5416 50.8619 55.5416C51.3692 55.5416 51.8662 55.286 52.1528 54.8242C52.5919 54.117 52.3742 53.1876 51.6669 52.7485Z" fill="white"/>
<path d="M112.883 106.662H110.492C110.485 106.651 110.479 106.64 110.472 106.629L85.5178 69.6032C84.9952 68.8278 84.2491 68.2543 83.3969 67.9419V63.7403L90.9283 59.0108C91.4002 58.7144 91.6703 58.1819 91.6301 57.6259C91.59 57.0701 91.2466 56.5817 90.7371 56.3558L82.4999 52.7072C82.0337 52.5008 81.4947 52.5439 81.0672 52.822C80.6399 53.1003 80.3821 53.5756 80.3821 54.0855V62.8841C80.3818 62.9003 80.3818 62.9166 80.3821 62.9326V67.9418C79.53 68.2542 78.7838 68.8277 78.2611 69.6031L68.0397 84.7691L65.6093 81.1629C64.7947 79.9543 63.4385 79.2328 61.9808 79.2328C60.5234 79.2328 59.167 79.9543 58.3526 81.1629L41.1673 106.662H38.7184C37.8858 106.662 37.2109 107.337 37.2109 108.169C37.2109 109.002 37.8858 109.677 38.7184 109.677H41.9657L41.9677 109.677L41.9701 109.677H112.883C113.715 109.677 114.39 109.002 114.39 108.169C114.39 107.337 113.715 106.662 112.883 106.662ZM83.3969 56.402L86.9251 57.9649L83.3969 60.1804V56.402ZM44.8028 106.662L60.8528 82.848C61.1099 82.4666 61.5211 82.2479 61.981 82.2479C62.441 82.2479 62.8522 82.4666 63.1093 82.848L66.2222 87.4664L60.8781 95.3956C60.4128 96.0861 60.5952 97.0229 61.2857 97.4881C61.9764 97.9539 62.9131 97.7708 63.3781 97.0806L80.7612 71.2882C81.0183 70.9068 81.4295 70.6881 81.8895 70.6881C82.3494 70.6881 82.7607 70.9068 83.0177 71.2882L106.858 106.662H44.8028Z" fill="white"/>
<path d="M58.316 103.333C59.1485 103.333 59.8234 102.658 59.8234 101.826C59.8234 100.993 59.1485 100.318 58.316 100.318C57.4834 100.318 56.8086 100.993 56.8086 101.826C56.8086 102.658 57.4834 103.333 58.316 103.333Z" fill="white"/>
<path d="M50.3621 79.4233H3.61471V69.3009L25.1479 46.6634C30.4545 40.6205 33.1079 35.82 33.1079 32.2618C33.1079 29.3785 32.479 27.1854 31.2214 25.6822C29.9638 24.1793 28.1387 23.4277 25.746 23.4277C23.3842 23.4277 21.467 24.44 19.9947 26.4645C18.5223 28.4583 17.7861 30.9582 17.7861 33.9643H2.23438C2.23438 29.854 3.26196 26.0658 5.31712 22.5996C7.37228 19.1027 10.225 16.3727 13.8752 14.4096C17.5255 12.4464 21.605 11.4648 26.1142 11.4648C33.3533 11.4648 38.9206 13.1366 42.8162 16.4801C46.7425 19.8235 48.7056 24.624 48.7056 30.8815C48.7056 33.5196 48.2148 36.0961 47.2332 38.6114C46.2517 41.096 44.7179 43.7187 42.6322 46.4793C40.577 49.2093 37.2488 52.8748 32.6478 57.476L23.9976 67.4604H50.3621V79.4233Z" fill="#9AD8EF"/>
</svg>
