<svg width="126" height="140" viewBox="0 0 126 140" fill="none" xmlns="http://www.w3.org/2000/svg">
<path d="M51.0582 26.6188C59.3882 21.8094 69.6513 21.8094 77.9813 26.6188L103.519 41.3632C111.849 46.1726 116.981 55.0606 116.981 64.6793V94.1681C116.981 103.787 111.849 112.675 103.519 117.484L77.9813 132.229C69.6513 137.038 59.3882 137.038 51.0582 132.229L25.5202 117.484C17.1901 112.675 12.0586 103.787 12.0586 94.1681V64.6793C12.0586 55.0606 17.1901 46.1726 25.5202 41.3632L51.0582 26.6188Z" fill="#6F45EE"/>
<path d="M60.7815 74.6304C55.0421 76.3146 51.0962 81.5761 51.0879 87.5577V99.6863C51.0879 100.431 51.691 101.034 52.4351 101.034H76.6939C77.4383 101.034 78.0414 100.431 78.0414 99.6863V87.5577C78.0325 81.5761 74.0867 76.3146 68.348 74.6304C72.4383 72.8398 74.7129 68.4267 73.7986 64.0561C72.8839 59.6848 69.03 56.5547 64.5645 56.5547C60.099 56.5547 56.2457 59.6848 55.3307 64.0561C54.4161 68.4267 56.691 72.8398 60.7815 74.6304ZM75.3463 87.5577V98.3384H53.7833V87.5577C53.7833 81.6026 58.6099 76.7755 64.5645 76.7755C70.5183 76.7755 75.3463 81.6026 75.3463 87.5577ZM64.5645 59.2559C68.2858 59.2559 71.3029 62.2727 71.3029 65.9943C71.3029 69.7159 68.2858 72.7325 64.5645 72.7325C60.8427 72.7325 57.8261 69.7159 57.8261 65.9943C57.8312 62.2744 60.8451 59.2605 64.5645 59.2559Z" fill="white"/>
<path d="M93.4222 100.813L93.4726 100.694L92.7191 100.376C92.4543 100.236 92.1772 100.119 91.8923 100.026L90.9897 99.6467L90.9222 99.8066C89.7271 99.6441 88.5122 99.8728 87.4582 100.459L82.6716 95.6719L80.7656 97.5776L85.542 102.354C85.0479 103.177 84.785 104.118 84.7804 105.077C84.7879 105.336 84.8123 105.593 84.8563 105.847L84.7399 105.896L84.9911 106.489C85.116 106.957 85.3035 107.403 85.5499 107.818L85.7875 108.379L85.9009 108.331C86.0417 108.527 86.1947 108.713 86.3605 108.889C87.7141 110.29 89.7181 110.852 91.6028 110.359C93.4876 109.865 94.9601 108.393 95.4522 106.509C95.9462 104.624 95.3838 102.62 93.9831 101.266C93.8074 101.102 93.6202 100.95 93.4222 100.813ZM92.0744 106.984C91.0084 108.002 89.3293 108.002 88.263 106.984C87.2101 105.931 87.2101 104.224 88.2625 103.171C89.3159 102.118 91.0221 102.118 92.0744 103.171C93.1279 104.224 93.1279 105.931 92.0744 106.984Z" fill="white"/>
<path d="M100.953 74.0807C100.694 74.0872 100.436 74.1139 100.181 74.1585L100.108 73.9863L98.9314 74.4849C98.8803 74.5062 98.8287 74.5263 98.7788 74.5497L97.6184 75.0388L97.6913 75.2098C96.7389 75.937 96.0568 76.9629 95.7537 78.1235H88.8242V80.8191H95.7537C96.0568 81.9818 96.7405 83.0093 97.697 83.7381L97.6236 83.9095L98.785 84.3983C98.8338 84.4212 98.8854 84.4415 98.9368 84.4633L100.108 84.9565L100.181 84.7836C102.176 85.0754 104.166 84.2275 105.337 82.5865C106.509 80.945 106.665 78.7874 105.741 76.9951C104.817 75.2028 102.97 74.0785 100.953 74.0807ZM100.953 82.1664C99.4645 82.1664 98.2578 80.9598 98.2578 79.4712C98.2578 77.9829 99.4645 76.7757 100.953 76.7757C102.442 76.7757 103.648 77.9829 103.648 79.4712C103.648 80.9598 102.442 82.1664 100.953 82.1664Z" fill="white"/>
<path d="M84.7399 53.0471L84.8563 53.0965C84.8123 53.3502 84.7879 53.6075 84.7804 53.8656C84.785 54.8259 85.0479 55.7662 85.542 56.5892L80.7656 61.3651L82.6716 63.271L87.4475 58.4947C88.27 58.9893 89.2115 59.2514 90.1713 59.2562C90.4295 59.2495 90.6865 59.224 90.9408 59.1803L90.9897 59.2962L91.5841 59.0462C92.0498 58.9214 92.4967 58.7331 92.9114 58.4866L93.4726 58.2492L93.4249 58.136C93.6205 57.9951 93.8074 57.842 93.9831 57.6765C96.0871 55.5717 96.0871 52.1589 93.9831 50.054C91.8501 48.0158 88.4921 48.0158 86.3605 50.054C86.1947 50.2293 86.0417 50.4158 85.9009 50.6123L85.7875 50.5636L85.5499 51.1251C85.3035 51.5402 85.116 51.9866 84.9911 52.4532L84.7399 53.0471ZM88.2657 51.9598C88.9419 51.2591 89.944 50.9775 90.8868 51.2248C91.8287 51.4716 92.5656 52.2067 92.8122 53.1495C93.0592 54.0925 92.7771 55.0934 92.0771 55.771C91.0105 56.7901 89.3323 56.7901 88.2657 55.771C87.2136 54.7181 87.2136 53.0125 88.2657 51.9598Z" fill="white"/>
<path d="M75.7188 49.2774L76.7644 46.7949L79.0114 47.7418L77.9652 50.2244L75.7188 49.2774Z" fill="white"/>
<path d="M71.252 47.3585L72.2999 44.875L74.5486 45.8235L73.501 48.3063L71.252 47.3585Z" fill="white"/>
<path d="M80.2109 51.1733L81.2566 48.6914L83.5028 49.6378L82.4574 52.119L80.2109 51.1733Z" fill="white"/>
<path d="M95.7285 88.4041L96.6769 86.1562L99.1599 87.2046L98.2122 89.4518L95.7285 88.4041Z" fill="white"/>
<path d="M91.9375 97.3977L92.8856 95.1484L95.3691 96.1963L94.4203 98.4445L91.9375 97.3977Z" fill="white"/>
<path d="M93.832 92.901L94.7804 90.6543L97.2636 91.7016L96.3157 93.9491L93.832 92.901Z" fill="white"/>
<path d="M50.041 111.203L51.0862 108.721L53.3329 109.667L52.2875 112.149L50.041 111.203Z" fill="white"/>
<path d="M54.5332 113.101L55.5789 110.617L57.8248 111.565L56.7799 114.047L54.5332 113.101Z" fill="white"/>
<path d="M45.5898 109.326L46.6378 106.842L48.887 107.79L47.8394 110.274L45.5898 109.326Z" fill="white"/>
<path d="M44.3902 105.896L44.2743 105.847C44.318 105.593 44.344 105.336 44.3502 105.077C44.3456 104.118 44.0827 103.177 43.5888 102.354L48.3652 97.5776L46.4592 95.6719L41.6722 100.459C40.6184 99.8728 39.4037 99.6441 38.2086 99.8066L38.1412 99.6467L37.2386 100.028C36.9536 100.119 36.6763 100.236 36.4118 100.376L35.6577 100.694L35.7084 100.813C35.5104 100.95 35.3237 101.102 35.148 101.266C33.7471 102.62 33.1838 104.624 33.6782 106.509C34.1718 108.393 35.6435 109.865 37.5283 110.359C39.4125 110.852 41.4173 110.29 42.7714 108.889C42.9359 108.713 43.0891 108.527 43.2302 108.331L43.3434 108.379L43.5805 107.819C43.8271 107.403 44.0154 106.957 44.1392 106.489L44.3902 105.896ZM40.8651 106.984C39.7983 108.002 38.1195 108.002 37.054 106.984C36.0011 105.931 36.0011 104.224 37.053 103.171C38.1061 102.118 39.8131 102.118 40.8651 103.171C41.9181 104.224 41.9181 105.931 40.8651 106.984Z" fill="white"/>
<path d="M31.8652 67.2393L32.8133 64.9922L35.2974 66.0403L34.349 68.2877L31.8652 67.2393Z" fill="white"/>
<path d="M29.9707 71.7366L30.9192 69.4883L33.4031 70.5359L32.4542 72.7845L29.9707 71.7366Z" fill="white"/>
<path d="M33.7617 62.745L34.7093 60.498L37.1933 61.5454L36.2447 63.7926L33.7617 62.745Z" fill="white"/>
<path d="M29.9688 87.2038L32.452 86.1562L33.4012 88.4047L30.9175 89.4526L29.9688 87.2038Z" fill="white"/>
<path d="M33.7617 96.1957L36.2447 95.1484L37.1933 97.3952L34.7093 98.4428L33.7617 96.1957Z" fill="white"/>
<path d="M31.8672 91.6999L34.3502 90.6523L35.298 92.8999L32.8146 93.9475L31.8672 91.6999Z" fill="white"/>
<path d="M80.2441 107.789L82.4919 106.842L83.5398 109.325L81.2917 110.273L80.2441 107.789Z" fill="white"/>
<path d="M71.25 111.584L73.4985 110.635L74.5461 113.118L72.2974 114.068L71.25 111.584Z" fill="white"/>
<path d="M75.7461 109.686L77.9936 108.738L79.0419 111.222L76.7937 112.17L75.7461 109.686Z" fill="white"/>
<path d="M69.5519 113.837C69.5308 113.785 69.5106 113.734 69.4871 113.684L68.9985 112.523L68.8274 112.596C68.0999 111.643 67.0738 110.961 65.9138 110.659V103.729H63.2178V110.659C62.0553 110.962 61.0274 111.646 60.2989 112.602L60.1277 112.529L59.6383 113.69C59.6164 113.739 59.5959 113.79 59.5743 113.842L59.0801 115.013L59.2535 115.085C58.8891 117.201 59.8144 119.331 61.6095 120.508C63.4045 121.686 65.7268 121.686 67.5218 120.508C69.3168 119.331 70.2428 117.201 69.8784 115.085L70.0507 115.013L69.5519 113.837ZM64.5658 118.553C63.0775 118.553 61.8711 117.347 61.8711 115.858C61.8711 114.369 63.0775 113.163 64.5658 113.163C66.0541 113.163 67.2613 114.369 67.2613 115.858C67.2613 117.347 66.0541 118.553 64.5658 118.553Z" fill="white"/>
<path d="M91.9355 61.5442L94.4185 60.4961L95.3674 62.7457L92.8836 63.793L91.9355 61.5442Z" fill="white"/>
<path d="M95.7266 70.5359L98.2105 69.4883L99.1584 71.7355L96.6747 72.7831L95.7266 70.5359Z" fill="white"/>
<path d="M93.832 66.0395L96.316 64.9922L97.2628 67.2392L94.7796 68.2869L93.832 66.0395Z" fill="white"/>
<path d="M59.5794 45.1035C59.601 45.1548 59.6215 45.2064 59.644 45.2553L60.133 46.4164L60.3047 46.3434C61.032 47.2962 62.058 47.9782 63.2178 48.2811V55.2111H65.9138V48.2811C67.0765 47.9779 68.1044 47.2946 68.8323 46.338L69.0039 46.4113L69.493 45.2499C69.516 45.2008 69.5357 45.1496 69.5579 45.0983L70.0507 43.9269L69.8784 43.8545C69.9232 43.5993 69.9485 43.3412 69.9565 43.0821C69.9565 40.1049 67.5429 37.6914 64.5658 37.6914C61.5892 37.6914 59.1748 40.1049 59.1748 43.0821C59.1827 43.3412 59.2086 43.5993 59.2535 43.8545L59.0801 43.9269L59.5794 45.1035ZM64.5658 40.3869C66.0541 40.3869 67.2613 41.5935 67.2613 43.0821C67.2613 44.5704 66.0541 45.7779 64.5658 45.7779C63.0775 45.7779 61.8711 44.5704 61.8711 43.0821C61.8711 41.5935 63.0775 40.3869 64.5658 40.3869Z" fill="white"/>
<path d="M45.5918 49.6144L47.8391 48.666L48.8864 51.1497L46.6394 52.0974L45.5918 49.6144Z" fill="white"/>
<path d="M54.584 45.8242L56.831 44.877L57.8788 47.3598L55.6313 48.3083L54.584 45.8242Z" fill="white"/>
<path d="M50.0879 47.7188L52.3356 46.7715L53.3831 49.2541L51.1355 50.2026L50.0879 47.7188Z" fill="white"/>
<path d="M38.3704 79.4238H22.8187V29.9159L7.54297 34.379V22.6001L36.944 12.4316H38.3704V79.4238Z" fill="#9AD8EF"/>
</svg>
