<svg width="132" height="140" viewBox="0 0 132 140" fill="none" xmlns="http://www.w3.org/2000/svg">
<path d="M56.7496 26.6188C65.0796 21.8094 75.3426 21.8094 83.6726 26.6188L109.211 41.3632C117.541 46.1726 122.672 55.0606 122.672 64.6793V94.1681C122.672 103.787 117.541 112.675 109.211 117.484L83.6726 132.229C75.3426 137.038 65.0796 137.038 56.7496 132.229L31.2115 117.484C22.8814 112.675 17.75 103.787 17.75 94.1681V64.6793C17.75 55.0606 22.8814 46.1726 31.2115 41.3632L56.7496 26.6188Z" fill="#6F45EE"/>
<path d="M98.6865 96.7137C100.645 95.312 101.924 93.0196 101.924 90.433C101.924 86.1761 98.461 82.7129 94.2041 82.7129C89.9473 82.7129 86.484 86.1761 86.484 90.433C86.484 93.0204 87.7642 95.3134 89.7236 96.7149C85.8816 98.4342 83.1973 102.292 83.1973 106.766C83.1973 107.427 83.7333 107.963 84.3943 107.963C85.0554 107.963 85.5914 107.427 85.5914 106.766C85.5914 102.017 89.455 98.1531 94.2041 98.1531C98.9533 98.1531 102.817 102.017 102.817 106.766C102.817 107.427 103.353 107.963 104.014 107.963C104.675 107.963 105.211 107.427 105.211 106.766C105.211 102.292 102.528 98.4333 98.6865 96.7137ZM94.2041 95.7591C91.2672 95.7591 88.878 93.3699 88.878 90.433C88.878 87.4962 91.2673 85.1069 94.2041 85.1069C97.1411 85.1069 99.5303 87.4962 99.5303 90.433C99.5303 93.3699 97.1411 95.7591 94.2041 95.7591Z" fill="white"/>
<path d="M78.5215 44.7274C76.4324 42.6674 73.662 41.5537 70.7287 41.5969C64.7385 41.681 59.9296 46.6257 60.0088 52.6192C60.0457 55.4044 61.134 58.04 63.0733 60.041C64.3932 61.4029 65.1199 63.1622 65.1199 64.9952V66.3835C65.1199 69.1836 67.3979 71.4616 70.1981 71.4616H71.5714C74.3717 71.4616 76.6497 69.1836 76.6497 66.3835V64.9951C76.6497 63.1595 77.3738 61.4027 78.6887 60.0488C80.6703 58.0081 81.7618 55.3175 81.7618 52.4725C81.7618 49.5384 80.6111 46.788 78.5215 44.7274ZM74.2558 66.3836C74.2558 67.8636 73.0517 69.0677 71.5716 69.0677H70.1982C68.7181 69.0677 67.5141 67.8636 67.5141 66.3836V66.1924H74.2559L74.2558 66.3836ZM76.9714 58.3813C75.5068 59.8895 74.595 61.7799 74.3351 63.7985H72.0818V56.8972L75.6243 53.3546C76.0917 52.8872 76.0917 52.1292 75.6243 51.662C75.1569 51.1945 74.3989 51.1945 73.9315 51.662L70.8848 54.7089L67.8381 51.662C67.3708 51.1945 66.6127 51.1945 66.1453 51.662C65.678 52.1294 65.678 52.8874 66.1453 53.3546L69.6879 56.8972V63.7985H67.4344C67.1737 61.782 66.2599 59.8894 64.7925 58.3751C63.2801 56.8146 62.4316 54.7592 62.4028 52.5877C62.3409 47.9129 66.0911 44.0563 70.7625 43.9906C70.8036 43.9901 70.8445 43.9898 70.8856 43.9898C73.13 43.9898 75.2406 44.8543 76.8408 46.4322C78.4706 48.0391 79.3679 50.1844 79.3679 52.4729C79.3678 54.6914 78.5168 56.7897 76.9714 58.3813Z" fill="white"/>
<path d="M59.506 71.8135C59.0388 71.346 58.2809 71.346 57.8134 71.8135L50.6318 78.995C50.1644 79.4624 50.1644 80.2203 50.6318 80.6878C50.8653 80.9216 51.1719 81.0385 51.4782 81.0385C51.7845 81.0385 52.0909 80.9216 52.3246 80.6878L59.506 73.5062C59.9736 73.0389 59.9736 72.2809 59.506 71.8135Z" fill="white"/>
<path d="M91.1369 78.995L83.9554 71.8135C83.4881 71.346 82.7303 71.346 82.2626 71.8135C81.7953 72.2808 81.7953 73.0387 82.2626 73.5062L89.4442 80.6878C89.6778 80.9216 89.9843 81.0385 90.2906 81.0385C90.5968 81.0385 90.9032 80.9216 91.1369 80.6878C91.6044 80.2204 91.6044 79.4625 91.1369 78.995Z" fill="white"/>
<path d="M70.8845 74.3145C70.2235 74.3145 69.6875 74.8504 69.6875 75.5115V80.0804C69.6875 80.7415 70.2235 81.2774 70.8845 81.2774C71.5456 81.2774 72.0815 80.7415 72.0815 80.0804V75.5115C72.0815 74.8504 71.5456 74.3145 70.8845 74.3145Z" fill="white"/>
<path d="M91.4724 88.9467C92.1335 88.9467 92.6694 88.4108 92.6694 87.7497C92.6694 87.0886 92.1335 86.5527 91.4724 86.5527C90.8113 86.5527 90.2754 87.0886 90.2754 87.7497C90.2754 88.4108 90.8113 88.9467 91.4724 88.9467Z" fill="white"/>
<path d="M95.8611 88.9467C96.5222 88.9467 97.0581 88.4108 97.0581 87.7497C97.0581 87.0886 96.5222 86.5527 95.8611 86.5527C95.2 86.5527 94.6641 87.0886 94.6641 87.7497C94.6641 88.4108 95.2 88.9467 95.8611 88.9467Z" fill="white"/>
<path d="M75.3662 96.7137C77.3246 95.312 78.604 93.0196 78.604 90.433C78.604 86.1761 75.1407 82.7129 70.8839 82.7129C66.627 82.7129 63.1637 86.1761 63.1637 90.433C63.1637 93.0204 64.4439 95.3134 66.4032 96.7149C62.5613 98.4342 59.877 102.292 59.877 106.766C59.877 107.427 60.413 107.963 61.0741 107.963C61.735 107.963 62.2711 107.427 62.2711 106.766C62.2711 102.017 66.1347 98.1531 70.8839 98.1531C75.633 98.1531 79.4966 102.017 79.4966 106.766C79.4966 107.427 80.0326 107.963 80.6937 107.963C81.3547 107.963 81.8907 107.427 81.8907 106.766C81.8905 102.292 79.2075 98.4333 75.3662 96.7137ZM70.8838 95.7591C67.9467 95.7591 65.5576 93.3699 65.5576 90.433C65.5576 87.4962 67.947 85.1068 70.8838 85.1068C73.8207 85.1068 76.2098 87.496 76.2098 90.4328C76.2098 93.3699 73.8207 95.7591 70.8838 95.7591Z" fill="white"/>
<path d="M68.6913 88.9467C69.3522 88.9467 69.8883 88.4108 69.8883 87.7497C69.8883 87.0886 69.3522 86.5527 68.6913 86.5527C68.0302 86.5527 67.4941 87.0886 67.4941 87.7497C67.4941 88.4108 68.0302 88.9467 68.6913 88.9467Z" fill="white"/>
<path d="M73.0798 88.9467C73.7409 88.9467 74.2768 88.4108 74.2768 87.7497C74.2768 87.0886 73.7409 86.5527 73.0798 86.5527C72.4187 86.5527 71.8828 87.0886 71.8828 87.7497C71.8828 88.4108 72.4187 88.9467 73.0798 88.9467Z" fill="white"/>
<path d="M52.0439 96.715C54.0032 95.3134 55.2835 93.0205 55.2835 90.4331C55.2835 86.1761 51.8203 82.7129 47.5633 82.7129C43.3064 82.7129 39.8431 86.1761 39.8431 90.4331C39.8431 93.0197 41.1227 95.3124 43.081 96.7138C39.2397 98.4335 36.5566 102.292 36.5566 106.766C36.5566 107.427 37.0925 107.963 37.7536 107.963C38.4147 107.963 38.9506 107.427 38.9506 106.766C38.9506 102.017 42.8144 98.1533 47.5635 98.1533C52.3127 98.1533 56.1763 102.017 56.1763 106.766C56.1763 107.427 56.7122 107.963 57.3733 107.963C58.0344 107.963 58.5703 107.427 58.5703 106.766C58.57 102.292 55.8858 98.4345 52.0439 96.715ZM47.5633 95.7594C44.6264 95.7594 42.2371 93.3701 42.2371 90.4332C42.2371 87.4964 44.6266 85.1072 47.5633 85.1072C50.5002 85.1072 52.8895 87.4964 52.8895 90.4332C52.8895 93.3701 50.5002 95.7594 47.5633 95.7594Z" fill="white"/>
<path d="M50.2947 88.9467C50.9558 88.9467 51.4917 88.4108 51.4917 87.7497C51.4917 87.0886 50.9558 86.5527 50.2947 86.5527C49.6336 86.5527 49.0977 87.0886 49.0977 87.7497C49.0977 88.4108 49.6336 88.9467 50.2947 88.9467Z" fill="white"/>
<path d="M45.906 88.9467C46.5671 88.9467 47.103 88.4108 47.103 87.7497C47.103 87.0886 46.5671 86.5527 45.906 86.5527C45.2449 86.5527 44.709 87.0886 44.709 87.7497C44.709 88.4108 45.2449 88.9467 45.906 88.9467Z" fill="white"/>
<path d="M18.4769 39.4397H25.7927C31.59 39.4397 34.4888 36.6022 34.4888 30.9275C34.4888 28.719 33.7987 26.9246 32.4183 25.5443C31.038 24.1332 29.0902 23.4277 26.5749 23.4277C24.5198 23.4277 22.7253 24.0259 21.1915 25.2221C19.6886 26.4185 18.937 27.9061 18.937 29.6853H3.4313C3.4313 26.1577 4.41286 23.0136 6.37601 20.2529C8.33915 17.4922 11.0538 15.3451 14.52 13.8115C18.0168 12.247 21.851 11.4648 26.0227 11.4648C33.4765 11.4648 39.3353 13.1673 43.5989 16.572C47.8627 19.9768 49.9945 24.6547 49.9945 30.6055C49.9945 33.4889 49.105 36.2189 47.3259 38.7954C45.5775 41.3414 43.0162 43.4119 39.6421 45.007C43.2002 46.2952 45.9916 48.2585 48.0161 50.8964C50.0406 53.5036 51.0529 56.7398 51.0529 60.6047C51.0529 66.5862 48.7523 71.3714 44.1511 74.9602C39.55 78.5491 33.5072 80.3435 26.0227 80.3435C21.6363 80.3435 17.5567 79.5153 13.7838 77.8589C10.0416 76.1718 7.2042 73.856 5.27175 70.9113C3.33928 67.9359 2.37305 64.5617 2.37305 60.7887H17.9709C17.9709 62.8439 18.799 64.623 20.4555 66.1261C22.1118 67.6291 24.1516 68.3806 26.5749 68.3806C29.3049 68.3806 31.4827 67.6291 33.1085 66.1261C34.7342 64.5923 35.5471 62.6445 35.5471 60.2826C35.5471 56.9084 34.7036 54.5159 33.0164 53.1049C31.3294 51.6938 28.9982 50.9885 26.0227 50.9885H18.4769V39.4397Z" fill="#9AD8EF"/>
</svg>
